<?xml version="1.0" encoding="utf-8" standalone="no"?>
<!DOCTYPE svg PUBLIC "-//W3C//DTD SVG 1.1//EN"
  "http://www.w3.org/Graphics/SVG/1.1/DTD/svg11.dtd">
<svg xmlns:xlink="http://www.w3.org/1999/xlink" width="1721.935938pt" height="122.948438pt" viewBox="0 0 1721.935938 122.948438" xmlns="http://www.w3.org/2000/svg" version="1.1">
 <metadata>
  <rdf:RDF xmlns:dc="http://purl.org/dc/elements/1.1/" xmlns:cc="http://creativecommons.org/ns#" xmlns:rdf="http://www.w3.org/1999/02/22-rdf-syntax-ns#">
   <cc:Work>
    <dc:type rdf:resource="http://purl.org/dc/dcmitype/StillImage"/>
    <dc:date>2024-11-06T08:49:02.077787</dc:date>
    <dc:format>image/svg+xml</dc:format>
    <dc:creator>
     <cc:Agent>
      <dc:title>Matplotlib v3.9.2, https://matplotlib.org/</dc:title>
     </cc:Agent>
    </dc:creator>
   </cc:Work>
  </rdf:RDF>
 </metadata>
 <defs>
  <style type="text/css">*{stroke-linejoin: round; stroke-linecap: butt}</style>
 </defs>
 <g id="figure_1">
  <g id="patch_1">
   <path d="M 0 122.948438 
L 1721.935938 122.948438 
L 1721.935938 0 
L 0 0 
z
" style="fill: #ffffff"/>
  </g>
  <g id="axes_1">
   <g id="patch_2">
    <path d="M 40.735938 31.658824 
L 1714.735938 31.658824 
L 1714.735938 7.2 
L 40.735938 7.2 
z
" style="fill: #ffffff"/>
   </g>
   <g id="patch_3">
    <path d="M 406.261736 31.658824 
L 456.532006 31.658824 
L 456.532006 7.2 
L 406.261736 7.2 
z
" clip-path="url(#p9deb6c06bd)" style="opacity: 0.3"/>
   </g>
   <g id="patch_4">
    <path d="M 886.114316 31.658824 
L 936.384586 31.658824 
L 936.384586 7.2 
L 886.114316 7.2 
z
" clip-path="url(#p9deb6c06bd)" style="opacity: 0.3"/>
   </g>
   <g id="matplotlib.axis_1">
    <g id="xtick_1">
     <g id="line2d_1">
      <defs>
       <path id="m687620448c" d="M 0 0 
L 0 3.5 
" style="stroke: #000000; stroke-width: 0.8"/>
      </defs>
      <g>
       <use xlink:href="#m687620448c" x="116.826847" y="31.658824" style="stroke: #000000; stroke-width: 0.8"/>
      </g>
     </g>
    </g>
    <g id="xtick_2">
     <g id="line2d_2">
      <g>
       <use xlink:href="#m687620448c" x="421.495151" y="31.658824" style="stroke: #000000; stroke-width: 0.8"/>
      </g>
     </g>
    </g>
    <g id="xtick_3">
     <g id="line2d_3">
      <g>
       <use xlink:href="#m687620448c" x="726.163456" y="31.658824" style="stroke: #000000; stroke-width: 0.8"/>
      </g>
     </g>
    </g>
    <g id="xtick_4">
     <g id="line2d_4">
      <g>
       <use xlink:href="#m687620448c" x="1030.831761" y="31.658824" style="stroke: #000000; stroke-width: 0.8"/>
      </g>
     </g>
    </g>
    <g id="xtick_5">
     <g id="line2d_5">
      <g>
       <use xlink:href="#m687620448c" x="1335.500065" y="31.658824" style="stroke: #000000; stroke-width: 0.8"/>
      </g>
     </g>
    </g>
    <g id="xtick_6">
     <g id="line2d_6">
      <g>
       <use xlink:href="#m687620448c" x="1640.16837" y="31.658824" style="stroke: #000000; stroke-width: 0.8"/>
      </g>
     </g>
    </g>
   </g>
   <g id="matplotlib.axis_2">
    <g id="ytick_1">
     <g id="line2d_7">
      <defs>
       <path id="maae3f949f2" d="M 0 0 
L -3.5 0 
" style="stroke: #000000; stroke-width: 0.8"/>
      </defs>
      <g>
       <use xlink:href="#maae3f949f2" x="40.735938" y="29.614401" style="stroke: #000000; stroke-width: 0.8"/>
      </g>
     </g>
     <g id="text_1">
      <!-- −1 -->
      <g transform="translate(7.2 36.452995) scale(0.18 -0.18)">
       <defs>
        <path id="DejaVuSans-2212" d="M 678 2272 
L 4684 2272 
L 4684 1741 
L 678 1741 
L 678 2272 
z
" transform="scale(0.015625)"/>
        <path id="DejaVuSans-31" d="M 794 531 
L 1825 531 
L 1825 4091 
L 703 3866 
L 703 4441 
L 1819 4666 
L 2450 4666 
L 2450 531 
L 3481 531 
L 3481 0 
L 794 0 
L 794 531 
z
" transform="scale(0.015625)"/>
       </defs>
       <use xlink:href="#DejaVuSans-2212"/>
       <use xlink:href="#DejaVuSans-31" x="83.789062"/>
      </g>
     </g>
    </g>
    <g id="ytick_2">
     <g id="line2d_8">
      <g>
       <use xlink:href="#maae3f949f2" x="40.735938" y="18.349872" style="stroke: #000000; stroke-width: 0.8"/>
      </g>
     </g>
     <g id="text_2">
      <!-- 0 -->
      <g transform="translate(22.283438 25.188466) scale(0.18 -0.18)">
       <defs>
        <path id="DejaVuSans-30" d="M 2034 4250 
Q 1547 4250 1301 3770 
Q 1056 3291 1056 2328 
Q 1056 1369 1301 889 
Q 1547 409 2034 409 
Q 2525 409 2770 889 
Q 3016 1369 3016 2328 
Q 3016 3291 2770 3770 
Q 2525 4250 2034 4250 
z
M 2034 4750 
Q 2819 4750 3233 4129 
Q 3647 3509 3647 2328 
Q 3647 1150 3233 529 
Q 2819 -91 2034 -91 
Q 1250 -91 836 529 
Q 422 1150 422 2328 
Q 422 3509 836 4129 
Q 1250 4750 2034 4750 
z
" transform="scale(0.015625)"/>
       </defs>
       <use xlink:href="#DejaVuSans-30"/>
      </g>
     </g>
    </g>
   </g>
   <g id="line2d_9">
    <path d="M 116.826847 18.349872 
L 118.350188 15.176288 
L 119.87353 12.259808 
L 121.396871 9.836709 
L 122.920213 8.103296 
L 124.443554 7.2 
L 125.966896 7.2 
L 127.490237 8.103296 
L 129.013579 9.836709 
L 130.53692 12.259808 
L 132.060262 15.176288 
L 135.106945 21.523457 
L 136.630286 24.439936 
L 138.153628 26.863035 
L 139.676969 28.596448 
L 141.200311 29.499745 
L 142.723652 29.499745 
L 144.246994 28.596448 
L 145.770336 26.863035 
L 147.293677 24.439936 
L 148.817019 21.523457 
L 151.863702 15.176288 
L 153.387043 12.259808 
L 154.910385 9.836709 
L 156.433726 8.103296 
L 157.957068 7.2 
L 159.480409 7.2 
L 161.003751 8.103296 
L 162.527092 9.836709 
L 164.050434 12.259808 
L 165.573775 15.176288 
L 168.620458 21.523457 
L 170.1438 24.439936 
L 171.667141 26.863035 
L 173.190483 28.596448 
L 174.713824 29.499745 
L 176.237166 29.499745 
L 177.760508 28.596448 
L 179.283849 26.863035 
L 180.807191 24.439936 
L 182.330532 21.523457 
L 185.377215 15.176288 
L 186.900557 12.259808 
L 188.423898 9.836709 
L 189.94724 8.103296 
L 191.470581 7.2 
L 192.993923 7.2 
L 194.517264 8.103296 
L 196.040606 9.836709 
L 197.563947 12.259808 
L 199.087289 15.176288 
L 202.133972 21.523457 
L 203.657313 24.439936 
L 205.180655 26.863035 
L 206.703996 28.596448 
L 208.227338 29.499745 
L 209.75068 29.499745 
L 211.274021 28.596448 
L 212.797363 26.863035 
L 214.320704 24.439936 
L 215.844046 21.523457 
L 218.890729 15.176288 
L 220.41407 12.259808 
L 221.937412 9.836709 
L 223.460753 8.103296 
L 224.984095 7.2 
L 226.507436 7.2 
L 228.030778 8.103296 
L 229.554119 9.836709 
L 231.077461 12.259808 
L 232.600802 15.176288 
L 235.647485 21.523457 
L 237.170827 24.439936 
L 238.694168 26.863035 
L 240.21751 28.596448 
L 241.740852 29.499745 
L 243.264193 29.499745 
L 244.787535 28.596448 
L 246.310876 26.863035 
L 247.834218 24.439936 
L 249.357559 21.523457 
L 252.404242 15.176288 
L 253.927584 12.259808 
L 255.450925 9.836709 
L 256.974267 8.103296 
L 258.497608 7.2 
L 260.02095 7.2 
L 261.544291 8.103296 
L 263.067633 9.836709 
L 264.590974 12.259808 
L 266.114316 15.176288 
L 269.160999 21.523457 
L 270.68434 24.439936 
L 272.207682 26.863035 
L 273.731023 28.596448 
L 275.254365 29.499745 
L 276.777707 29.499745 
L 278.301048 28.596448 
L 279.82439 26.863035 
L 281.347731 24.439936 
L 282.871073 21.523457 
L 285.917756 15.176288 
L 287.441097 12.259808 
L 288.964439 9.836709 
L 290.48778 8.103296 
L 292.011122 7.2 
L 293.534463 7.2 
L 295.057805 8.103296 
L 296.581146 9.836709 
L 298.104488 12.259808 
L 299.627829 15.176288 
L 302.674512 21.523457 
L 304.197854 24.439936 
L 305.721195 26.863035 
L 307.244537 28.596448 
L 308.767879 29.499745 
L 310.29122 29.499745 
L 311.814562 28.596448 
L 313.337903 26.863035 
L 314.861245 24.439936 
L 316.384586 21.523457 
L 319.431269 15.176288 
L 320.954611 12.259808 
L 322.477952 9.836709 
L 324.001294 8.103296 
L 325.524635 7.2 
L 327.047977 7.2 
L 328.571318 8.103296 
L 330.09466 9.836709 
L 331.618001 12.259808 
L 333.141343 15.176288 
L 336.188026 21.523457 
L 337.711367 24.439936 
L 339.234709 26.863035 
L 340.758051 28.596448 
L 342.281392 29.499745 
L 343.804734 29.499745 
L 345.328075 28.596448 
L 346.851417 26.863035 
L 348.374758 24.439936 
L 349.8981 21.523457 
L 352.944783 15.176288 
L 354.468124 12.259808 
L 355.991466 9.836709 
L 357.514807 8.103296 
L 359.038149 7.2 
L 360.56149 7.2 
L 362.084832 8.103296 
L 363.608173 9.836709 
L 365.131515 12.259808 
L 366.654856 15.176288 
L 369.701539 21.523457 
L 371.224881 24.439936 
L 372.748223 26.863035 
L 374.271564 28.596448 
L 375.794906 29.499745 
L 377.318247 29.499745 
L 378.841589 28.596448 
L 380.36493 26.863035 
L 381.888272 24.439936 
L 383.411613 21.523457 
L 386.458296 15.176288 
L 387.981638 12.259808 
L 389.504979 9.836709 
L 391.028321 8.103296 
L 392.551662 7.2 
L 394.075004 7.2 
L 395.598345 8.103296 
L 397.121687 9.836709 
L 398.645028 12.259808 
L 400.16837 15.176288 
L 403.215053 21.523457 
L 404.738395 24.439936 
L 406.261736 26.863035 
L 407.785078 28.596448 
L 409.308419 29.499745 
L 410.831761 29.499745 
L 412.355102 28.596448 
L 413.878444 26.863035 
L 415.401785 24.439936 
L 416.925127 21.523457 
L 419.97181 15.176288 
L 421.495151 12.259808 
L 423.018493 9.836709 
L 424.541834 8.103296 
L 426.065176 7.2 
L 427.588517 7.2 
L 429.111859 18.349872 
L 430.6352 15.176288 
L 432.158542 12.259808 
L 433.681883 9.836709 
L 435.205225 8.103296 
L 436.728566 21.523457 
L 438.251908 24.439936 
L 439.77525 26.863035 
L 441.298591 28.596448 
L 442.821933 29.499745 
L 444.345274 29.499745 
L 445.868616 28.596448 
L 447.391957 26.863035 
L 448.915299 24.439936 
L 450.43864 21.523457 
L 453.485323 15.176288 
L 455.008665 12.259808 
L 456.532006 9.836709 
L 458.055348 8.103296 
L 459.578689 7.2 
L 461.102031 7.2 
L 462.625372 8.103296 
L 464.148714 9.836709 
L 465.672055 12.259808 
L 467.195397 15.176288 
L 470.24208 21.523457 
L 471.765422 24.439936 
L 473.288763 26.863035 
L 474.812105 28.596448 
L 476.335446 29.499745 
L 477.858788 29.499745 
L 479.382129 28.596448 
L 480.905471 26.863035 
L 482.428812 24.439936 
L 483.952154 21.523457 
L 486.998837 15.176288 
L 488.522178 12.259808 
L 490.04552 9.836709 
L 491.568861 8.103296 
L 493.092203 7.2 
L 494.615544 7.2 
L 496.138886 8.103296 
L 497.662227 9.836709 
L 499.185569 12.259808 
L 500.70891 15.176288 
L 503.755594 21.523457 
L 505.278935 24.439936 
L 506.802277 26.863035 
L 508.325618 28.596448 
L 509.84896 29.499745 
L 511.372301 29.499745 
L 512.895643 28.596448 
L 514.418984 26.863035 
L 515.942326 24.439936 
L 517.465667 21.523457 
L 520.51235 15.176288 
L 522.035692 12.259808 
L 523.559033 9.836709 
L 525.082375 8.103296 
L 526.605716 7.2 
L 528.129058 7.2 
L 529.652399 8.103296 
L 531.175741 9.836709 
L 532.699082 12.259808 
L 534.222424 15.176288 
L 537.269107 21.523457 
L 538.792449 24.439936 
L 540.31579 26.863035 
L 541.839132 28.596448 
L 543.362473 29.499745 
L 544.885815 29.499745 
L 546.409156 28.596448 
L 547.932498 26.863035 
L 549.455839 24.439936 
L 550.979181 21.523457 
L 554.025864 15.176288 
L 555.549205 12.259808 
L 557.072547 9.836709 
L 558.595888 8.103296 
L 560.11923 7.2 
L 561.642571 7.2 
L 563.165913 8.103296 
L 564.689254 9.836709 
L 566.212596 12.259808 
L 567.735937 15.176288 
L 570.782621 21.523457 
L 572.305962 24.439936 
L 573.829304 26.863035 
L 575.352645 28.596448 
L 576.875987 29.499745 
L 578.399328 29.499745 
L 579.92267 28.596448 
L 581.446011 26.863035 
L 582.969353 24.439936 
L 584.492694 21.523457 
L 587.539377 15.176288 
L 589.062719 12.259808 
L 590.58606 9.836709 
L 592.109402 8.103296 
L 593.632743 7.2 
L 595.156085 7.2 
L 596.679426 8.103296 
L 598.202768 9.836709 
L 599.726109 12.259808 
L 601.249451 15.176288 
L 604.296134 21.523457 
L 605.819476 24.439936 
L 607.342817 26.863035 
L 608.866159 28.596448 
L 610.3895 29.499745 
L 611.912842 29.499745 
L 613.436183 28.596448 
L 614.959525 26.863035 
L 616.482866 24.439936 
L 618.006208 21.523457 
L 621.052891 15.176288 
L 622.576232 12.259808 
L 624.099574 9.836709 
L 625.622915 8.103296 
L 627.146257 7.2 
L 628.669598 7.2 
L 630.19294 8.103296 
L 631.716281 9.836709 
L 633.239623 12.259808 
L 634.762965 15.176288 
L 637.809648 21.523457 
L 639.332989 24.439936 
L 640.856331 26.863035 
L 642.379672 28.596448 
L 643.903014 29.499745 
L 645.426355 29.499745 
L 646.949697 28.596448 
L 648.473038 26.863035 
L 649.99638 24.439936 
L 651.519721 21.523457 
L 654.566404 15.176288 
L 656.089746 12.259808 
L 657.613087 9.836709 
L 659.136429 8.103296 
L 660.65977 7.2 
L 662.183112 7.2 
L 663.706453 8.103296 
L 665.229795 9.836709 
L 666.753137 12.259808 
L 668.276478 15.176288 
L 671.323161 21.523457 
L 672.846503 24.439936 
L 674.369844 26.863035 
L 675.893186 28.596448 
L 677.416527 29.499745 
L 678.939869 29.499745 
L 680.46321 28.596448 
L 681.986552 26.863035 
L 683.509893 24.439936 
L 685.033235 21.523457 
L 688.079918 15.176288 
L 689.603259 12.259808 
L 691.126601 9.836709 
L 692.649942 8.103296 
L 694.173284 7.2 
L 695.696625 7.2 
L 697.219967 8.103296 
L 698.743309 9.836709 
L 700.26665 12.259808 
L 701.789992 15.176288 
L 704.836675 21.523457 
L 706.360016 24.439936 
L 707.883358 26.863035 
L 709.406699 28.596448 
L 710.930041 29.499745 
L 712.453382 29.499745 
L 713.976724 28.596448 
L 715.500065 26.863035 
L 717.023407 24.439936 
L 718.546748 21.523457 
L 721.593431 15.176288 
L 723.116773 12.259808 
L 724.640114 9.836709 
L 726.163456 8.103296 
L 727.686797 7.2 
L 729.210139 7.2 
L 730.73348 8.103296 
L 732.256822 9.836709 
L 733.780164 12.259808 
L 735.303505 15.176288 
L 738.350188 21.523457 
L 739.87353 24.439936 
L 741.396871 26.863035 
L 742.920213 28.596448 
L 744.443554 29.499745 
L 745.966896 29.499745 
L 747.490237 28.596448 
L 749.013579 26.863035 
L 750.53692 24.439936 
L 752.060262 21.523457 
L 755.106945 15.176288 
L 756.630286 12.259808 
L 758.153628 9.836709 
L 759.676969 8.103296 
L 761.200311 7.2 
L 762.723652 7.2 
L 764.246994 8.103296 
L 765.770336 9.836709 
L 767.293677 12.259808 
L 768.817019 15.176288 
L 771.863702 21.523457 
L 773.387043 24.439936 
L 774.910385 26.863035 
L 776.433726 28.596448 
L 777.957068 29.499745 
L 779.480409 29.499745 
L 781.003751 28.596448 
L 782.527092 26.863035 
L 784.050434 24.439936 
L 785.573775 21.523457 
L 788.620458 15.176288 
L 790.1438 12.259808 
L 791.667141 9.836709 
L 793.190483 8.103296 
L 794.713824 7.2 
L 796.237166 7.2 
L 797.760508 8.103296 
L 799.283849 9.836709 
L 800.807191 12.259808 
L 802.330532 15.176288 
L 805.377215 21.523457 
L 806.900557 24.439936 
L 808.423898 26.863035 
L 809.94724 28.596448 
L 811.470581 29.499745 
L 812.993923 29.499745 
L 814.517264 28.596448 
L 816.040606 26.863035 
L 817.563947 24.439936 
L 819.087289 21.523457 
L 822.133972 15.176288 
L 823.657313 12.259808 
L 825.180655 9.836709 
L 826.703996 8.103296 
L 828.227338 7.2 
L 829.75068 7.2 
L 831.274021 8.103296 
L 832.797363 9.836709 
L 834.320704 12.259808 
L 835.844046 15.176288 
L 838.890729 21.523457 
L 840.41407 24.439936 
L 841.937412 26.863035 
L 843.460753 28.596448 
L 844.984095 29.499745 
L 846.507436 29.499745 
L 848.030778 28.596448 
L 849.554119 26.863035 
L 851.077461 24.439936 
L 852.600802 21.523457 
L 855.647485 15.176288 
L 857.170827 12.259808 
L 858.694168 9.836709 
L 860.21751 8.103296 
L 861.740852 7.2 
L 863.264193 7.2 
L 864.787535 8.103296 
L 866.310876 9.836709 
L 867.834218 12.259808 
L 869.357559 15.176288 
L 872.404242 21.523457 
L 873.927584 24.439936 
L 875.450925 26.863035 
L 876.974267 28.596448 
L 878.497608 29.499745 
L 880.02095 29.499745 
L 881.544291 28.596448 
L 883.067633 26.863035 
L 884.590974 24.439936 
L 886.114316 21.523457 
L 889.160999 15.176288 
L 890.68434 12.259808 
L 892.207682 9.836709 
L 893.731023 8.103296 
L 895.254365 7.2 
L 896.777707 7.2 
L 898.301048 8.103296 
L 899.82439 9.836709 
L 901.347731 12.259808 
L 902.871073 15.176288 
L 905.917756 21.523457 
L 907.441097 24.439936 
L 908.964439 25.00277 
L 910.48778 31.329988 
L 912.011122 29.982894 
L 913.534463 28.073727 
L 915.057805 29.57279 
L 916.581146 26.863035 
L 918.104488 24.439936 
L 919.627829 21.523457 
L 922.674512 15.176288 
L 924.197854 12.259808 
L 925.721195 9.836709 
L 927.244537 8.103296 
L 928.767879 7.2 
L 930.29122 7.2 
L 931.814562 8.103296 
L 933.337903 9.836709 
L 934.861245 12.259808 
L 936.384586 15.176288 
L 939.431269 21.523457 
L 940.954611 24.439936 
L 942.477952 26.863035 
L 944.001294 28.596448 
L 945.524635 29.499745 
L 947.047977 29.499745 
L 948.571318 28.596448 
L 950.09466 26.863035 
L 951.618001 24.439936 
L 953.141343 21.523457 
L 956.188026 15.176288 
L 957.711367 12.259808 
L 959.234709 9.836709 
L 960.758051 8.103296 
L 962.281392 7.2 
L 963.804734 7.2 
L 965.328075 8.103296 
L 966.851417 9.836709 
L 968.374758 12.259808 
L 969.8981 15.176288 
L 972.944783 21.523457 
L 974.468124 24.439936 
L 975.991466 26.863035 
L 977.514807 28.596448 
L 979.038149 29.499745 
L 980.56149 29.499745 
L 982.084832 28.596448 
L 983.608173 26.863035 
L 985.131515 24.439936 
L 986.654856 21.523457 
L 989.701539 15.176288 
L 991.224881 12.259808 
L 992.748223 9.836709 
L 994.271564 8.103296 
L 995.794906 7.2 
L 997.318247 7.2 
L 998.841589 8.103296 
L 1000.36493 9.836709 
L 1001.888272 12.259808 
L 1003.411613 15.176288 
L 1006.458296 21.523457 
L 1007.981638 24.439936 
L 1009.504979 26.863035 
L 1011.028321 28.596448 
L 1012.551662 29.499745 
L 1014.075004 29.499745 
L 1015.598345 28.596448 
L 1017.121687 26.863035 
L 1018.645028 24.439936 
L 1020.16837 21.523457 
L 1023.215053 15.176288 
L 1024.738395 12.259808 
L 1026.261736 9.836709 
L 1027.785078 8.103296 
L 1029.308419 7.2 
L 1030.831761 7.2 
L 1032.355102 8.103296 
L 1033.878444 9.836709 
L 1035.401785 12.259808 
L 1036.925127 15.176288 
L 1039.97181 21.523457 
L 1041.495151 24.439936 
L 1043.018493 26.863035 
L 1044.541834 28.596448 
L 1046.065176 29.499745 
L 1047.588517 29.499745 
L 1049.111859 28.596448 
L 1050.6352 26.863035 
L 1052.158542 24.439936 
L 1053.681883 21.523457 
L 1056.728566 15.176288 
L 1058.251908 12.259808 
L 1059.77525 9.836709 
L 1061.298591 8.103296 
L 1062.821933 7.2 
L 1064.345274 7.2 
L 1065.868616 8.103296 
L 1067.391957 9.836709 
L 1068.915299 12.259808 
L 1070.43864 15.176288 
L 1073.485323 21.523457 
L 1075.008665 24.439936 
L 1076.532006 26.863035 
L 1078.055348 28.596448 
L 1079.578689 29.499745 
L 1081.102031 29.499745 
L 1082.625372 28.596448 
L 1084.148714 26.863035 
L 1085.672055 24.439936 
L 1087.195397 21.523457 
L 1090.24208 15.176288 
L 1091.765422 12.259808 
L 1093.288763 9.836709 
L 1094.812105 8.103296 
L 1096.335446 7.2 
L 1097.858788 7.2 
L 1099.382129 8.103296 
L 1100.905471 9.836709 
L 1102.428812 12.259808 
L 1103.952154 15.176288 
L 1106.998837 21.523457 
L 1108.522178 24.439936 
L 1110.04552 26.863035 
L 1111.568861 28.596448 
L 1113.092203 29.499745 
L 1114.615544 29.499745 
L 1116.138886 28.596448 
L 1117.662227 26.863035 
L 1119.185569 24.439936 
L 1120.70891 21.523457 
L 1123.755594 15.176288 
L 1125.278935 12.259808 
L 1126.802277 9.836709 
L 1128.325618 8.103296 
L 1129.84896 7.2 
L 1131.372301 7.2 
L 1132.895643 8.103296 
L 1134.418984 9.836709 
L 1135.942326 12.259808 
L 1137.465667 15.176288 
L 1140.51235 21.523457 
L 1142.035692 24.439936 
L 1143.559033 26.863035 
L 1145.082375 28.596448 
L 1146.605716 29.499745 
L 1148.129058 29.499745 
L 1149.652399 28.596448 
L 1151.175741 26.863035 
L 1152.699082 24.439936 
L 1154.222424 21.523457 
L 1157.269107 15.176288 
L 1158.792449 12.259808 
L 1160.31579 9.836709 
L 1161.839132 8.103296 
L 1163.362473 7.2 
L 1164.885815 7.2 
L 1166.409156 8.103296 
L 1167.932498 9.836709 
L 1169.455839 12.259808 
L 1170.979181 15.176288 
L 1174.025864 21.523457 
L 1175.549205 24.439936 
L 1177.072547 26.863035 
L 1178.595888 28.596448 
L 1180.11923 29.499745 
L 1181.642571 29.499745 
L 1183.165913 28.596448 
L 1184.689254 26.863035 
L 1186.212596 24.439936 
L 1187.735937 21.523457 
L 1190.782621 15.176288 
L 1192.305962 12.259808 
L 1193.829304 9.836709 
L 1195.352645 8.103296 
L 1196.875987 7.2 
L 1198.399328 7.2 
L 1199.92267 8.103296 
L 1201.446011 9.836709 
L 1202.969353 12.259808 
L 1204.492694 15.176288 
L 1207.539377 21.523457 
L 1209.062719 24.439936 
L 1210.58606 26.863035 
L 1212.109402 28.596448 
L 1213.632743 29.499745 
L 1215.156085 29.499745 
L 1216.679426 28.596448 
L 1218.202768 26.863035 
L 1219.726109 24.439936 
L 1221.249451 21.523457 
L 1224.296134 15.176288 
L 1225.819476 12.259808 
L 1227.342817 9.836709 
L 1228.866159 8.103296 
L 1230.3895 7.2 
L 1231.912842 7.2 
L 1233.436183 8.103296 
L 1234.959525 9.836709 
L 1236.482866 12.259808 
L 1238.006208 15.176288 
L 1241.052891 21.523457 
L 1242.576232 24.439936 
L 1244.099574 26.863035 
L 1245.622915 28.596448 
L 1247.146257 29.499745 
L 1248.669598 29.499745 
L 1250.19294 28.596448 
L 1251.716281 26.863035 
L 1253.239623 24.439936 
L 1254.762965 21.523457 
L 1257.809648 15.176288 
L 1259.332989 12.259808 
L 1260.856331 9.836709 
L 1262.379672 8.103296 
L 1263.903014 7.2 
L 1265.426355 7.2 
L 1266.949697 8.103296 
L 1268.473038 9.836709 
L 1269.99638 12.259808 
L 1271.519721 15.176288 
L 1274.566404 21.523457 
L 1276.089746 24.439936 
L 1277.613087 26.863035 
L 1279.136429 28.596448 
L 1280.65977 29.499745 
L 1282.183112 29.499745 
L 1283.706453 28.596448 
L 1285.229795 26.863035 
L 1286.753137 24.439936 
L 1288.276478 21.523457 
L 1291.323161 15.176288 
L 1292.846503 12.259808 
L 1294.369844 9.836709 
L 1295.893186 8.103296 
L 1297.416527 7.2 
L 1298.939869 7.2 
L 1300.46321 8.103296 
L 1301.986552 9.836709 
L 1303.509893 12.259808 
L 1305.033235 15.176288 
L 1308.079918 21.523457 
L 1309.603259 24.439936 
L 1311.126601 26.863035 
L 1312.649942 28.596448 
L 1314.173284 29.499745 
L 1315.696625 29.499745 
L 1317.219967 28.596448 
L 1318.743309 26.863035 
L 1320.26665 24.439936 
L 1321.789992 21.523457 
L 1324.836675 15.176288 
L 1326.360016 12.259808 
L 1327.883358 9.836709 
L 1329.406699 8.103296 
L 1330.930041 7.2 
L 1332.453382 7.2 
L 1333.976724 8.103296 
L 1335.500065 9.836709 
L 1337.023407 12.259808 
L 1338.546748 15.176288 
L 1341.593431 21.523457 
L 1343.116773 24.439936 
L 1344.640114 26.863035 
L 1346.163456 28.596448 
L 1347.686797 29.499745 
L 1349.210139 29.499745 
L 1350.73348 28.596448 
L 1352.256822 26.863035 
L 1353.780164 24.439936 
L 1355.303505 21.523457 
L 1358.350188 15.176288 
L 1359.87353 12.259808 
L 1361.396871 9.836709 
L 1362.920213 8.103296 
L 1364.443554 7.2 
L 1365.966896 7.2 
L 1367.490237 8.103296 
L 1369.013579 9.836709 
L 1370.53692 12.259808 
L 1372.060262 15.176288 
L 1375.106945 21.523457 
L 1376.630286 24.439936 
L 1378.153628 26.863035 
L 1379.676969 28.596448 
L 1381.200311 29.499745 
L 1382.723652 29.499745 
L 1384.246994 28.596448 
L 1385.770336 26.863035 
L 1387.293677 24.439936 
L 1388.817019 21.523457 
L 1391.863702 15.176288 
L 1393.387043 12.259808 
L 1394.910385 9.836709 
L 1396.433726 8.103296 
L 1397.957068 7.2 
L 1399.480409 7.2 
L 1401.003751 8.103296 
L 1402.527092 9.836709 
L 1404.050434 12.259808 
L 1405.573775 15.176288 
L 1408.620458 21.523457 
L 1410.1438 24.439936 
L 1411.667141 26.863035 
L 1413.190483 28.596448 
L 1414.713824 29.499745 
L 1416.237166 29.499745 
L 1417.760508 28.596448 
L 1419.283849 26.863035 
L 1420.807191 24.439936 
L 1422.330532 21.523457 
L 1425.377215 15.176288 
L 1426.900557 12.259808 
L 1428.423898 9.836709 
L 1429.94724 8.103296 
L 1431.470581 7.2 
L 1432.993923 7.2 
L 1434.517264 8.103296 
L 1436.040606 9.836709 
L 1437.563947 12.259808 
L 1439.087289 15.176288 
L 1442.133972 21.523457 
L 1443.657313 24.439936 
L 1445.180655 26.863035 
L 1446.703996 28.596448 
L 1448.227338 29.499745 
L 1449.75068 29.499745 
L 1451.274021 28.596448 
L 1452.797363 26.863035 
L 1454.320704 24.439936 
L 1455.844046 21.523457 
L 1458.890729 15.176288 
L 1460.41407 12.259808 
L 1461.937412 9.836709 
L 1463.460753 8.103296 
L 1464.984095 7.2 
L 1466.507436 7.2 
L 1468.030778 8.103296 
L 1469.554119 9.836709 
L 1471.077461 12.259808 
L 1472.600802 15.176288 
L 1475.647485 21.523457 
L 1477.170827 24.439936 
L 1478.694168 26.863035 
L 1480.21751 28.596448 
L 1481.740852 29.499745 
L 1483.264193 29.499745 
L 1484.787535 28.596448 
L 1486.310876 26.863035 
L 1487.834218 24.439936 
L 1489.357559 21.523457 
L 1492.404242 15.176288 
L 1493.927584 12.259808 
L 1495.450925 9.836709 
L 1496.974267 8.103296 
L 1498.497608 7.2 
L 1500.02095 7.2 
L 1501.544291 8.103296 
L 1503.067633 9.836709 
L 1504.590974 12.259808 
L 1506.114316 15.176288 
L 1509.160999 21.523457 
L 1510.68434 24.439936 
L 1512.207682 26.863035 
L 1513.731023 28.596448 
L 1515.254365 29.499745 
L 1516.777707 29.499745 
L 1518.301048 28.596448 
L 1519.82439 26.863035 
L 1521.347731 24.439936 
L 1522.871073 21.523457 
L 1525.917756 15.176288 
L 1527.441097 12.259808 
L 1528.964439 9.836709 
L 1530.48778 8.103296 
L 1532.011122 7.2 
L 1533.534463 7.2 
L 1535.057805 8.103296 
L 1536.581146 9.836709 
L 1538.104488 12.259808 
L 1539.627829 15.176288 
L 1542.674512 21.523457 
L 1544.197854 24.439936 
L 1545.721195 26.863035 
L 1547.244537 28.596448 
L 1548.767879 29.499745 
L 1550.29122 29.499745 
L 1551.814562 28.596448 
L 1553.337903 26.863035 
L 1554.861245 24.439936 
L 1556.384586 21.523457 
L 1559.431269 15.176288 
L 1560.954611 12.259808 
L 1562.477952 9.836709 
L 1564.001294 8.103296 
L 1565.524635 7.2 
L 1567.047977 7.2 
L 1568.571318 8.103296 
L 1570.09466 9.836709 
L 1571.618001 12.259808 
L 1573.141343 15.176288 
L 1576.188026 21.523457 
L 1577.711367 24.439936 
L 1579.234709 26.863035 
L 1580.758051 28.596448 
L 1582.281392 29.499745 
L 1583.804734 29.499745 
L 1585.328075 28.596448 
L 1586.851417 26.863035 
L 1588.374758 24.439936 
L 1589.8981 21.523457 
L 1592.944783 15.176288 
L 1594.468124 12.259808 
L 1595.991466 9.836709 
L 1597.514807 8.103296 
L 1599.038149 7.2 
L 1600.56149 7.2 
L 1602.084832 8.103296 
L 1603.608173 9.836709 
L 1605.131515 12.259808 
L 1606.654856 15.176288 
L 1609.701539 21.523457 
L 1611.224881 24.439936 
L 1612.748223 26.863035 
L 1614.271564 28.596448 
L 1615.794906 29.499745 
L 1617.318247 29.499745 
L 1618.841589 28.596448 
L 1620.36493 26.863035 
L 1621.888272 24.439936 
L 1623.411613 21.523457 
L 1626.458296 15.176288 
L 1627.981638 12.259808 
L 1629.504979 9.836709 
L 1631.028321 8.103296 
L 1632.551662 7.2 
L 1634.075004 7.2 
L 1635.598345 8.103296 
L 1637.121687 9.836709 
L 1638.645028 12.259808 
L 1638.645028 12.259808 
" clip-path="url(#p9deb6c06bd)" style="fill: none; stroke: #808080; stroke-width: 0.8; stroke-linecap: square"/>
   </g>
   <g id="patch_5">
    <path d="M 40.735938 31.658824 
L 40.735938 7.2 
" style="fill: none; stroke: #000000; stroke-width: 0.8; stroke-linejoin: miter; stroke-linecap: square"/>
   </g>
   <g id="patch_6">
    <path d="M 1714.735938 31.658824 
L 1714.735938 7.2 
" style="fill: none; stroke: #000000; stroke-width: 0.8; stroke-linejoin: miter; stroke-linecap: square"/>
   </g>
   <g id="patch_7">
    <path d="M 40.735938 31.658824 
L 1714.735938 31.658824 
" style="fill: none; stroke: #000000; stroke-width: 0.8; stroke-linejoin: miter; stroke-linecap: square"/>
   </g>
   <g id="patch_8">
    <path d="M 40.735938 7.2 
L 1714.735938 7.2 
" style="fill: none; stroke: #000000; stroke-width: 0.8; stroke-linejoin: miter; stroke-linecap: square"/>
   </g>
   <g id="legend_1">
    <g id="patch_9">
     <path d="M 1623.270063 39.698695 
L 1709.661938 39.698695 
Q 1713.061938 39.698695 1713.061938 36.298695 
L 1713.061938 13.045882 
Q 1713.061938 9.645882 1709.661938 9.645882 
L 1623.270063 9.645882 
Q 1619.870063 9.645882 1619.870063 13.045882 
L 1619.870063 36.298695 
Q 1619.870063 39.698695 1623.270063 39.698695 
z
" style="fill: #ffffff; opacity: 0.8; stroke: #cccccc; stroke-linejoin: miter"/>
    </g>
    <g id="line2d_10">
     <path d="M 1626.670063 23.413226 
L 1643.670063 23.413226 
L 1660.670063 23.413226 
" style="fill: none; stroke: #808080; stroke-width: 0.8; stroke-linecap: square"/>
    </g>
    <g id="text_3">
     <!-- TS0 -->
     <g transform="translate(1674.270062 29.363226) scale(0.17 -0.17)">
      <defs>
       <path id="DejaVuSans-54" d="M -19 4666 
L 3928 4666 
L 3928 4134 
L 2272 4134 
L 2272 0 
L 1638 0 
L 1638 4134 
L -19 4134 
L -19 4666 
z
" transform="scale(0.015625)"/>
       <path id="DejaVuSans-53" d="M 3425 4513 
L 3425 3897 
Q 3066 4069 2747 4153 
Q 2428 4238 2131 4238 
Q 1616 4238 1336 4038 
Q 1056 3838 1056 3469 
Q 1056 3159 1242 3001 
Q 1428 2844 1947 2747 
L 2328 2669 
Q 3034 2534 3370 2195 
Q 3706 1856 3706 1288 
Q 3706 609 3251 259 
Q 2797 -91 1919 -91 
Q 1588 -91 1214 -16 
Q 841 59 441 206 
L 441 856 
Q 825 641 1194 531 
Q 1563 422 1919 422 
Q 2459 422 2753 634 
Q 3047 847 3047 1241 
Q 3047 1584 2836 1778 
Q 2625 1972 2144 2069 
L 1759 2144 
Q 1053 2284 737 2584 
Q 422 2884 422 3419 
Q 422 4038 858 4394 
Q 1294 4750 2059 4750 
Q 2388 4750 2728 4690 
Q 3069 4631 3425 4513 
z
" transform="scale(0.015625)"/>
      </defs>
      <use xlink:href="#DejaVuSans-54"/>
      <use xlink:href="#DejaVuSans-53" x="61.083984"/>
      <use xlink:href="#DejaVuSans-30" x="124.560547"/>
     </g>
    </g>
   </g>
  </g>
  <g id="axes_2">
   <g id="patch_10">
    <path d="M 40.735938 61.009412 
L 1714.735938 61.009412 
L 1714.735938 36.550588 
L 40.735938 36.550588 
z
" style="fill: #ffffff"/>
   </g>
   <g id="patch_11">
    <path d="M 406.261736 61.009412 
L 456.532006 61.009412 
L 456.532006 36.550588 
L 406.261736 36.550588 
z
" clip-path="url(#p523666d8c9)" style="fill: #0000ff; opacity: 0.3"/>
   </g>
   <g id="patch_12">
    <path d="M 886.114316 61.009412 
L 936.384586 61.009412 
L 936.384586 36.550588 
L 886.114316 36.550588 
z
" clip-path="url(#p523666d8c9)" style="fill: #0000ff; opacity: 0.3"/>
   </g>
   <g id="matplotlib.axis_3">
    <g id="xtick_7">
     <g id="line2d_11">
      <g>
       <use xlink:href="#m687620448c" x="116.826847" y="61.009412" style="stroke: #000000; stroke-width: 0.8"/>
      </g>
     </g>
    </g>
    <g id="xtick_8">
     <g id="line2d_12">
      <g>
       <use xlink:href="#m687620448c" x="421.495151" y="61.009412" style="stroke: #000000; stroke-width: 0.8"/>
      </g>
     </g>
    </g>
    <g id="xtick_9">
     <g id="line2d_13">
      <g>
       <use xlink:href="#m687620448c" x="726.163456" y="61.009412" style="stroke: #000000; stroke-width: 0.8"/>
      </g>
     </g>
    </g>
    <g id="xtick_10">
     <g id="line2d_14">
      <g>
       <use xlink:href="#m687620448c" x="1030.831761" y="61.009412" style="stroke: #000000; stroke-width: 0.8"/>
      </g>
     </g>
    </g>
    <g id="xtick_11">
     <g id="line2d_15">
      <g>
       <use xlink:href="#m687620448c" x="1335.500065" y="61.009412" style="stroke: #000000; stroke-width: 0.8"/>
      </g>
     </g>
    </g>
    <g id="xtick_12">
     <g id="line2d_16">
      <g>
       <use xlink:href="#m687620448c" x="1640.16837" y="61.009412" style="stroke: #000000; stroke-width: 0.8"/>
      </g>
     </g>
    </g>
   </g>
   <g id="matplotlib.axis_4">
    <g id="ytick_3">
     <g id="line2d_17">
      <g>
       <use xlink:href="#maae3f949f2" x="40.735938" y="58.964989" style="stroke: #000000; stroke-width: 0.8"/>
      </g>
     </g>
     <g id="text_4">
      <!-- −1 -->
      <g transform="translate(7.2 65.803583) scale(0.18 -0.18)">
       <use xlink:href="#DejaVuSans-2212"/>
       <use xlink:href="#DejaVuSans-31" x="83.789062"/>
      </g>
     </g>
    </g>
    <g id="ytick_4">
     <g id="line2d_18">
      <g>
       <use xlink:href="#maae3f949f2" x="40.735938" y="47.70046" style="stroke: #000000; stroke-width: 0.8"/>
      </g>
     </g>
     <g id="text_5">
      <!-- 0 -->
      <g transform="translate(22.283438 54.539054) scale(0.18 -0.18)">
       <use xlink:href="#DejaVuSans-30"/>
      </g>
     </g>
    </g>
   </g>
   <g id="line2d_19">
    <path d="M 116.826847 47.70046 
L 118.350188 44.526876 
L 119.87353 41.610396 
L 121.396871 39.187298 
L 122.920213 37.453885 
L 124.443554 36.550588 
L 125.966896 36.550588 
L 127.490237 37.453885 
L 129.013579 39.187298 
L 130.53692 41.610396 
L 132.060262 44.526876 
L 135.106945 50.874045 
L 136.630286 53.790525 
L 138.153628 56.213623 
L 139.676969 57.947036 
L 141.200311 58.850333 
L 142.723652 58.850333 
L 144.246994 57.947036 
L 145.770336 56.213623 
L 147.293677 53.790525 
L 148.817019 50.874045 
L 151.863702 44.526876 
L 153.387043 41.610396 
L 154.910385 39.187298 
L 156.433726 37.453885 
L 157.957068 36.550588 
L 159.480409 36.550588 
L 161.003751 37.453885 
L 162.527092 39.187298 
L 164.050434 41.610396 
L 165.573775 44.526876 
L 168.620458 50.874045 
L 170.1438 53.790525 
L 171.667141 56.213623 
L 173.190483 57.947036 
L 174.713824 58.850333 
L 176.237166 58.850333 
L 177.760508 57.947036 
L 179.283849 56.213623 
L 180.807191 53.790525 
L 182.330532 50.874045 
L 185.377215 44.526876 
L 186.900557 41.610396 
L 188.423898 39.187298 
L 189.94724 37.453885 
L 191.470581 36.550588 
L 192.993923 36.550588 
L 194.517264 37.453885 
L 196.040606 39.187298 
L 197.563947 41.610396 
L 199.087289 44.526876 
L 202.133972 50.874045 
L 203.657313 53.790525 
L 205.180655 56.213623 
L 206.703996 57.947036 
L 208.227338 58.850333 
L 209.75068 58.850333 
L 211.274021 57.947036 
L 212.797363 56.213623 
L 214.320704 53.790525 
L 215.844046 50.874045 
L 218.890729 44.526876 
L 220.41407 41.610396 
L 221.937412 39.187298 
L 223.460753 37.453885 
L 224.984095 36.550588 
L 226.507436 36.550588 
L 228.030778 37.453885 
L 229.554119 39.187298 
L 231.077461 41.610396 
L 232.600802 44.526876 
L 235.647485 50.874045 
L 237.170827 53.790525 
L 238.694168 56.213623 
L 240.21751 57.947036 
L 241.740852 58.850333 
L 243.264193 58.850333 
L 244.787535 57.947036 
L 246.310876 56.213623 
L 247.834218 53.790525 
L 249.357559 50.874045 
L 252.404242 44.526876 
L 253.927584 41.610396 
L 255.450925 39.187298 
L 256.974267 37.453885 
L 258.497608 36.550588 
L 260.02095 36.550588 
L 261.544291 37.453885 
L 263.067633 39.187298 
L 264.590974 41.610396 
L 266.114316 44.526876 
L 269.160999 50.874045 
L 270.68434 53.790525 
L 272.207682 56.213623 
L 273.731023 57.947036 
L 275.254365 58.850333 
L 276.777707 58.850333 
L 278.301048 57.947036 
L 279.82439 56.213623 
L 281.347731 53.790525 
L 282.871073 50.874045 
L 285.917756 44.526876 
L 287.441097 41.610396 
L 288.964439 39.187298 
L 290.48778 37.453885 
L 292.011122 36.550588 
L 293.534463 36.550588 
L 295.057805 37.453885 
L 296.581146 39.187298 
L 298.104488 41.610396 
L 299.627829 44.526876 
L 302.674512 50.874045 
L 304.197854 53.790525 
L 305.721195 56.213623 
L 307.244537 57.947036 
L 308.767879 58.850333 
L 310.29122 58.850333 
L 311.814562 57.947036 
L 313.337903 56.213623 
L 314.861245 53.790525 
L 316.384586 50.874045 
L 319.431269 44.526876 
L 320.954611 41.610396 
L 322.477952 39.187298 
L 324.001294 37.453885 
L 325.524635 36.550588 
L 327.047977 36.550588 
L 328.571318 37.453885 
L 330.09466 39.187298 
L 331.618001 41.610396 
L 333.141343 44.526876 
L 336.188026 50.874045 
L 337.711367 53.790525 
L 339.234709 56.213623 
L 340.758051 57.947036 
L 342.281392 58.850333 
L 343.804734 58.850333 
L 345.328075 57.947036 
L 346.851417 56.213623 
L 348.374758 53.790525 
L 349.8981 50.874045 
L 352.944783 44.526876 
L 354.468124 41.610396 
L 355.991466 39.187298 
L 357.514807 37.453885 
L 359.038149 36.550588 
L 360.56149 36.550588 
L 362.084832 37.453885 
L 363.608173 39.187298 
L 365.131515 41.610396 
L 366.654856 44.526876 
L 369.701539 50.874045 
L 371.224881 53.790525 
L 372.748223 56.213623 
L 374.271564 57.947036 
L 375.794906 58.850333 
L 377.318247 58.850333 
L 378.841589 57.947036 
L 380.36493 56.213623 
L 381.888272 53.790525 
L 383.411613 50.874045 
L 386.458296 44.526876 
L 387.981638 41.610396 
L 389.504979 39.187298 
L 391.028321 37.453885 
L 392.551662 36.550588 
L 394.075004 36.550588 
L 395.598345 37.453885 
L 397.121687 39.187298 
L 398.645028 41.610396 
L 400.16837 44.526876 
L 403.215053 50.874045 
L 404.738395 53.790525 
L 406.261736 56.213623 
L 407.785078 57.947036 
L 409.308419 58.850333 
L 410.831761 58.850333 
L 412.355102 57.947036 
L 413.878444 56.213623 
L 415.401785 53.790525 
L 416.925127 50.874045 
L 419.97181 44.526876 
L 421.495151 41.610396 
L 423.018493 39.187298 
L 424.541834 37.453885 
L 426.065176 36.550588 
L 427.588517 36.550588 
L 429.111859 39.899708 
L 430.6352 36.940372 
L 432.158542 40.972872 
L 433.681883 47.920416 
L 435.205225 49.003992 
L 436.728566 50.874045 
L 438.251908 53.790525 
L 439.77525 56.213623 
L 441.298591 57.947036 
L 442.821933 58.850333 
L 444.345274 58.850333 
L 445.868616 57.947036 
L 447.391957 56.213623 
L 448.915299 53.790525 
L 450.43864 50.874045 
L 453.485323 44.526876 
L 455.008665 41.610396 
L 456.532006 39.187298 
L 458.055348 37.453885 
L 459.578689 36.550588 
L 461.102031 36.550588 
L 462.625372 37.453885 
L 464.148714 39.187298 
L 465.672055 41.610396 
L 467.195397 44.526876 
L 470.24208 50.874045 
L 471.765422 53.790525 
L 473.288763 56.213623 
L 474.812105 57.947036 
L 476.335446 58.850333 
L 477.858788 58.850333 
L 479.382129 57.947036 
L 480.905471 56.213623 
L 482.428812 53.790525 
L 483.952154 50.874045 
L 486.998837 44.526876 
L 488.522178 41.610396 
L 490.04552 39.187298 
L 491.568861 37.453885 
L 493.092203 36.550588 
L 494.615544 36.550588 
L 496.138886 37.453885 
L 497.662227 39.187298 
L 499.185569 41.610396 
L 500.70891 44.526876 
L 503.755594 50.874045 
L 505.278935 53.790525 
L 506.802277 56.213623 
L 508.325618 57.947036 
L 509.84896 58.850333 
L 511.372301 58.850333 
L 512.895643 57.947036 
L 514.418984 56.213623 
L 515.942326 53.790525 
L 517.465667 50.874045 
L 520.51235 44.526876 
L 522.035692 41.610396 
L 523.559033 39.187298 
L 525.082375 37.453885 
L 526.605716 36.550588 
L 528.129058 36.550588 
L 529.652399 37.453885 
L 531.175741 39.187298 
L 532.699082 41.610396 
L 534.222424 44.526876 
L 537.269107 50.874045 
L 538.792449 53.790525 
L 540.31579 56.213623 
L 541.839132 57.947036 
L 543.362473 58.850333 
L 544.885815 58.850333 
L 546.409156 57.947036 
L 547.932498 56.213623 
L 549.455839 53.790525 
L 550.979181 50.874045 
L 554.025864 44.526876 
L 555.549205 41.610396 
L 557.072547 39.187298 
L 558.595888 37.453885 
L 560.11923 36.550588 
L 561.642571 36.550588 
L 563.165913 37.453885 
L 564.689254 39.187298 
L 566.212596 41.610396 
L 567.735937 44.526876 
L 570.782621 50.874045 
L 572.305962 53.790525 
L 573.829304 56.213623 
L 575.352645 57.947036 
L 576.875987 58.850333 
L 578.399328 58.850333 
L 579.92267 57.947036 
L 581.446011 56.213623 
L 582.969353 53.790525 
L 584.492694 50.874045 
L 587.539377 44.526876 
L 589.062719 41.610396 
L 590.58606 39.187298 
L 592.109402 37.453885 
L 593.632743 36.550588 
L 595.156085 36.550588 
L 596.679426 37.453885 
L 598.202768 39.187298 
L 599.726109 41.610396 
L 601.249451 44.526876 
L 604.296134 50.874045 
L 605.819476 53.790525 
L 607.342817 56.213623 
L 608.866159 57.947036 
L 610.3895 58.850333 
L 611.912842 58.850333 
L 613.436183 57.947036 
L 614.959525 56.213623 
L 616.482866 53.790525 
L 618.006208 50.874045 
L 621.052891 44.526876 
L 622.576232 41.610396 
L 624.099574 39.187298 
L 625.622915 37.453885 
L 627.146257 36.550588 
L 628.669598 36.550588 
L 630.19294 37.453885 
L 631.716281 39.187298 
L 633.239623 41.610396 
L 634.762965 44.526876 
L 637.809648 50.874045 
L 639.332989 53.790525 
L 640.856331 56.213623 
L 642.379672 57.947036 
L 643.903014 58.850333 
L 645.426355 58.850333 
L 646.949697 57.947036 
L 648.473038 56.213623 
L 649.99638 53.790525 
L 651.519721 50.874045 
L 654.566404 44.526876 
L 656.089746 41.610396 
L 657.613087 39.187298 
L 659.136429 37.453885 
L 660.65977 36.550588 
L 662.183112 36.550588 
L 663.706453 37.453885 
L 665.229795 39.187298 
L 666.753137 41.610396 
L 668.276478 44.526876 
L 671.323161 50.874045 
L 672.846503 53.790525 
L 674.369844 56.213623 
L 675.893186 57.947036 
L 677.416527 58.850333 
L 678.939869 58.850333 
L 680.46321 57.947036 
L 681.986552 56.213623 
L 683.509893 53.790525 
L 685.033235 50.874045 
L 688.079918 44.526876 
L 689.603259 41.610396 
L 691.126601 39.187298 
L 692.649942 37.453885 
L 694.173284 36.550588 
L 695.696625 36.550588 
L 697.219967 37.453885 
L 698.743309 39.187298 
L 700.26665 41.610396 
L 701.789992 44.526876 
L 704.836675 50.874045 
L 706.360016 53.790525 
L 707.883358 56.213623 
L 709.406699 57.947036 
L 710.930041 58.850333 
L 712.453382 58.850333 
L 713.976724 57.947036 
L 715.500065 56.213623 
L 717.023407 53.790525 
L 718.546748 50.874045 
L 721.593431 44.526876 
L 723.116773 41.610396 
L 724.640114 39.187298 
L 726.163456 37.453885 
L 727.686797 36.550588 
L 729.210139 36.550588 
L 730.73348 37.453885 
L 732.256822 39.187298 
L 733.780164 41.610396 
L 735.303505 44.526876 
L 738.350188 50.874045 
L 739.87353 53.790525 
L 741.396871 56.213623 
L 742.920213 57.947036 
L 744.443554 58.850333 
L 745.966896 58.850333 
L 747.490237 57.947036 
L 749.013579 56.213623 
L 750.53692 53.790525 
L 752.060262 50.874045 
L 755.106945 44.526876 
L 756.630286 41.610396 
L 758.153628 39.187298 
L 759.676969 37.453885 
L 761.200311 36.550588 
L 762.723652 36.550588 
L 764.246994 37.453885 
L 765.770336 39.187298 
L 767.293677 41.610396 
L 768.817019 44.526876 
L 771.863702 50.874045 
L 773.387043 53.790525 
L 774.910385 56.213623 
L 776.433726 57.947036 
L 777.957068 58.850333 
L 779.480409 58.850333 
L 781.003751 57.947036 
L 782.527092 56.213623 
L 784.050434 53.790525 
L 785.573775 50.874045 
L 788.620458 44.526876 
L 790.1438 41.610396 
L 791.667141 39.187298 
L 793.190483 37.453885 
L 794.713824 36.550588 
L 796.237166 36.550588 
L 797.760508 37.453885 
L 799.283849 39.187298 
L 800.807191 41.610396 
L 802.330532 44.526876 
L 805.377215 50.874045 
L 806.900557 53.790525 
L 808.423898 56.213623 
L 809.94724 57.947036 
L 811.470581 58.850333 
L 812.993923 58.850333 
L 814.517264 57.947036 
L 816.040606 56.213623 
L 817.563947 53.790525 
L 819.087289 50.874045 
L 822.133972 44.526876 
L 823.657313 41.610396 
L 825.180655 39.187298 
L 826.703996 37.453885 
L 828.227338 36.550588 
L 829.75068 36.550588 
L 831.274021 37.453885 
L 832.797363 39.187298 
L 834.320704 41.610396 
L 835.844046 44.526876 
L 838.890729 50.874045 
L 840.41407 53.790525 
L 841.937412 56.213623 
L 843.460753 57.947036 
L 844.984095 58.850333 
L 846.507436 58.850333 
L 848.030778 57.947036 
L 849.554119 56.213623 
L 851.077461 53.790525 
L 852.600802 50.874045 
L 855.647485 44.526876 
L 857.170827 41.610396 
L 858.694168 39.187298 
L 860.21751 37.453885 
L 861.740852 36.550588 
L 863.264193 36.550588 
L 864.787535 37.453885 
L 866.310876 39.187298 
L 867.834218 41.610396 
L 869.357559 44.526876 
L 872.404242 50.874045 
L 873.927584 53.790525 
L 875.450925 56.213623 
L 876.974267 57.947036 
L 878.497608 58.850333 
L 880.02095 58.850333 
L 881.544291 57.947036 
L 883.067633 56.213623 
L 884.590974 53.790525 
L 886.114316 50.874045 
L 889.160999 44.526876 
L 890.68434 41.610396 
L 892.207682 39.187298 
L 893.731023 37.453885 
L 895.254365 36.550588 
L 896.777707 36.550588 
L 898.301048 37.453885 
L 899.82439 39.187298 
L 901.347731 41.610396 
L 902.871073 44.526876 
L 905.917756 50.874045 
L 907.441097 53.790525 
L 908.964439 58.507823 
L 910.48778 58.267092 
L 912.011122 53.810392 
L 913.534463 61.009412 
L 915.057805 59.447411 
L 916.581146 56.213623 
L 918.104488 53.790525 
L 919.627829 50.874045 
L 922.674512 44.526876 
L 924.197854 41.610396 
L 925.721195 39.187298 
L 927.244537 37.453885 
L 928.767879 36.550588 
L 930.29122 36.550588 
L 931.814562 37.453885 
L 933.337903 39.187298 
L 934.861245 41.610396 
L 936.384586 44.526876 
L 939.431269 50.874045 
L 940.954611 53.790525 
L 942.477952 56.213623 
L 944.001294 57.947036 
L 945.524635 58.850333 
L 947.047977 58.850333 
L 948.571318 57.947036 
L 950.09466 56.213623 
L 951.618001 53.790525 
L 953.141343 50.874045 
L 956.188026 44.526876 
L 957.711367 41.610396 
L 959.234709 39.187298 
L 960.758051 37.453885 
L 962.281392 36.550588 
L 963.804734 36.550588 
L 965.328075 37.453885 
L 966.851417 39.187298 
L 968.374758 41.610396 
L 969.8981 44.526876 
L 972.944783 50.874045 
L 974.468124 53.790525 
L 975.991466 56.213623 
L 977.514807 57.947036 
L 979.038149 58.850333 
L 980.56149 58.850333 
L 982.084832 57.947036 
L 983.608173 56.213623 
L 985.131515 53.790525 
L 986.654856 50.874045 
L 989.701539 44.526876 
L 991.224881 41.610396 
L 992.748223 39.187298 
L 994.271564 37.453885 
L 995.794906 36.550588 
L 997.318247 36.550588 
L 998.841589 37.453885 
L 1000.36493 39.187298 
L 1001.888272 41.610396 
L 1003.411613 44.526876 
L 1006.458296 50.874045 
L 1007.981638 53.790525 
L 1009.504979 56.213623 
L 1011.028321 57.947036 
L 1012.551662 58.850333 
L 1014.075004 58.850333 
L 1015.598345 57.947036 
L 1017.121687 56.213623 
L 1018.645028 53.790525 
L 1020.16837 50.874045 
L 1023.215053 44.526876 
L 1024.738395 41.610396 
L 1026.261736 39.187298 
L 1027.785078 37.453885 
L 1029.308419 36.550588 
L 1030.831761 36.550588 
L 1032.355102 37.453885 
L 1033.878444 39.187298 
L 1035.401785 41.610396 
L 1036.925127 44.526876 
L 1039.97181 50.874045 
L 1041.495151 53.790525 
L 1043.018493 56.213623 
L 1044.541834 57.947036 
L 1046.065176 58.850333 
L 1047.588517 58.850333 
L 1049.111859 57.947036 
L 1050.6352 56.213623 
L 1052.158542 53.790525 
L 1053.681883 50.874045 
L 1056.728566 44.526876 
L 1058.251908 41.610396 
L 1059.77525 39.187298 
L 1061.298591 37.453885 
L 1062.821933 36.550588 
L 1064.345274 36.550588 
L 1065.868616 37.453885 
L 1067.391957 39.187298 
L 1068.915299 41.610396 
L 1070.43864 44.526876 
L 1073.485323 50.874045 
L 1075.008665 53.790525 
L 1076.532006 56.213623 
L 1078.055348 57.947036 
L 1079.578689 58.850333 
L 1081.102031 58.850333 
L 1082.625372 57.947036 
L 1084.148714 56.213623 
L 1085.672055 53.790525 
L 1087.195397 50.874045 
L 1090.24208 44.526876 
L 1091.765422 41.610396 
L 1093.288763 39.187298 
L 1094.812105 37.453885 
L 1096.335446 36.550588 
L 1097.858788 36.550588 
L 1099.382129 37.453885 
L 1100.905471 39.187298 
L 1102.428812 41.610396 
L 1103.952154 44.526876 
L 1106.998837 50.874045 
L 1108.522178 53.790525 
L 1110.04552 56.213623 
L 1111.568861 57.947036 
L 1113.092203 58.850333 
L 1114.615544 58.850333 
L 1116.138886 57.947036 
L 1117.662227 56.213623 
L 1119.185569 53.790525 
L 1120.70891 50.874045 
L 1123.755594 44.526876 
L 1125.278935 41.610396 
L 1126.802277 39.187298 
L 1128.325618 37.453885 
L 1129.84896 36.550588 
L 1131.372301 36.550588 
L 1132.895643 37.453885 
L 1134.418984 39.187298 
L 1135.942326 41.610396 
L 1137.465667 44.526876 
L 1140.51235 50.874045 
L 1142.035692 53.790525 
L 1143.559033 56.213623 
L 1145.082375 57.947036 
L 1146.605716 58.850333 
L 1148.129058 58.850333 
L 1149.652399 57.947036 
L 1151.175741 56.213623 
L 1152.699082 53.790525 
L 1154.222424 50.874045 
L 1157.269107 44.526876 
L 1158.792449 41.610396 
L 1160.31579 39.187298 
L 1161.839132 37.453885 
L 1163.362473 36.550588 
L 1164.885815 36.550588 
L 1166.409156 37.453885 
L 1167.932498 39.187298 
L 1169.455839 41.610396 
L 1170.979181 44.526876 
L 1174.025864 50.874045 
L 1175.549205 53.790525 
L 1177.072547 56.213623 
L 1178.595888 57.947036 
L 1180.11923 58.850333 
L 1181.642571 58.850333 
L 1183.165913 57.947036 
L 1184.689254 56.213623 
L 1186.212596 53.790525 
L 1187.735937 50.874045 
L 1190.782621 44.526876 
L 1192.305962 41.610396 
L 1193.829304 39.187298 
L 1195.352645 37.453885 
L 1196.875987 36.550588 
L 1198.399328 36.550588 
L 1199.92267 37.453885 
L 1201.446011 39.187298 
L 1202.969353 41.610396 
L 1204.492694 44.526876 
L 1207.539377 50.874045 
L 1209.062719 53.790525 
L 1210.58606 56.213623 
L 1212.109402 57.947036 
L 1213.632743 58.850333 
L 1215.156085 58.850333 
L 1216.679426 57.947036 
L 1218.202768 56.213623 
L 1219.726109 53.790525 
L 1221.249451 50.874045 
L 1224.296134 44.526876 
L 1225.819476 41.610396 
L 1227.342817 39.187298 
L 1228.866159 37.453885 
L 1230.3895 36.550588 
L 1231.912842 36.550588 
L 1233.436183 37.453885 
L 1234.959525 39.187298 
L 1236.482866 41.610396 
L 1238.006208 44.526876 
L 1241.052891 50.874045 
L 1242.576232 53.790525 
L 1244.099574 56.213623 
L 1245.622915 57.947036 
L 1247.146257 58.850333 
L 1248.669598 58.850333 
L 1250.19294 57.947036 
L 1251.716281 56.213623 
L 1253.239623 53.790525 
L 1254.762965 50.874045 
L 1257.809648 44.526876 
L 1259.332989 41.610396 
L 1260.856331 39.187298 
L 1262.379672 37.453885 
L 1263.903014 36.550588 
L 1265.426355 36.550588 
L 1266.949697 37.453885 
L 1268.473038 39.187298 
L 1269.99638 41.610396 
L 1271.519721 44.526876 
L 1274.566404 50.874045 
L 1276.089746 53.790525 
L 1277.613087 56.213623 
L 1279.136429 57.947036 
L 1280.65977 58.850333 
L 1282.183112 58.850333 
L 1283.706453 57.947036 
L 1285.229795 56.213623 
L 1286.753137 53.790525 
L 1288.276478 50.874045 
L 1291.323161 44.526876 
L 1292.846503 41.610396 
L 1294.369844 39.187298 
L 1295.893186 37.453885 
L 1297.416527 36.550588 
L 1298.939869 36.550588 
L 1300.46321 37.453885 
L 1301.986552 39.187298 
L 1303.509893 41.610396 
L 1305.033235 44.526876 
L 1308.079918 50.874045 
L 1309.603259 53.790525 
L 1311.126601 56.213623 
L 1312.649942 57.947036 
L 1314.173284 58.850333 
L 1315.696625 58.850333 
L 1317.219967 57.947036 
L 1318.743309 56.213623 
L 1320.26665 53.790525 
L 1321.789992 50.874045 
L 1324.836675 44.526876 
L 1326.360016 41.610396 
L 1327.883358 39.187298 
L 1329.406699 37.453885 
L 1330.930041 36.550588 
L 1332.453382 36.550588 
L 1333.976724 37.453885 
L 1335.500065 39.187298 
L 1337.023407 41.610396 
L 1338.546748 44.526876 
L 1341.593431 50.874045 
L 1343.116773 53.790525 
L 1344.640114 56.213623 
L 1346.163456 57.947036 
L 1347.686797 58.850333 
L 1349.210139 58.850333 
L 1350.73348 57.947036 
L 1352.256822 56.213623 
L 1353.780164 53.790525 
L 1355.303505 50.874045 
L 1358.350188 44.526876 
L 1359.87353 41.610396 
L 1361.396871 39.187298 
L 1362.920213 37.453885 
L 1364.443554 36.550588 
L 1365.966896 36.550588 
L 1367.490237 37.453885 
L 1369.013579 39.187298 
L 1370.53692 41.610396 
L 1372.060262 44.526876 
L 1375.106945 50.874045 
L 1376.630286 53.790525 
L 1378.153628 56.213623 
L 1379.676969 57.947036 
L 1381.200311 58.850333 
L 1382.723652 58.850333 
L 1384.246994 57.947036 
L 1385.770336 56.213623 
L 1387.293677 53.790525 
L 1388.817019 50.874045 
L 1391.863702 44.526876 
L 1393.387043 41.610396 
L 1394.910385 39.187298 
L 1396.433726 37.453885 
L 1397.957068 36.550588 
L 1399.480409 36.550588 
L 1401.003751 37.453885 
L 1402.527092 39.187298 
L 1404.050434 41.610396 
L 1405.573775 44.526876 
L 1408.620458 50.874045 
L 1410.1438 53.790525 
L 1411.667141 56.213623 
L 1413.190483 57.947036 
L 1414.713824 58.850333 
L 1416.237166 58.850333 
L 1417.760508 57.947036 
L 1419.283849 56.213623 
L 1420.807191 53.790525 
L 1422.330532 50.874045 
L 1425.377215 44.526876 
L 1426.900557 41.610396 
L 1428.423898 39.187298 
L 1429.94724 37.453885 
L 1431.470581 36.550588 
L 1432.993923 36.550588 
L 1434.517264 37.453885 
L 1436.040606 39.187298 
L 1437.563947 41.610396 
L 1439.087289 44.526876 
L 1442.133972 50.874045 
L 1443.657313 53.790525 
L 1445.180655 56.213623 
L 1446.703996 57.947036 
L 1448.227338 58.850333 
L 1449.75068 58.850333 
L 1451.274021 57.947036 
L 1452.797363 56.213623 
L 1454.320704 53.790525 
L 1455.844046 50.874045 
L 1458.890729 44.526876 
L 1460.41407 41.610396 
L 1461.937412 39.187298 
L 1463.460753 37.453885 
L 1464.984095 36.550588 
L 1466.507436 36.550588 
L 1468.030778 37.453885 
L 1469.554119 39.187298 
L 1471.077461 41.610396 
L 1472.600802 44.526876 
L 1475.647485 50.874045 
L 1477.170827 53.790525 
L 1478.694168 56.213623 
L 1480.21751 57.947036 
L 1481.740852 58.850333 
L 1483.264193 58.850333 
L 1484.787535 57.947036 
L 1486.310876 56.213623 
L 1487.834218 53.790525 
L 1489.357559 50.874045 
L 1492.404242 44.526876 
L 1493.927584 41.610396 
L 1495.450925 39.187298 
L 1496.974267 37.453885 
L 1498.497608 36.550588 
L 1500.02095 36.550588 
L 1501.544291 37.453885 
L 1503.067633 39.187298 
L 1504.590974 41.610396 
L 1506.114316 44.526876 
L 1509.160999 50.874045 
L 1510.68434 53.790525 
L 1512.207682 56.213623 
L 1513.731023 57.947036 
L 1515.254365 58.850333 
L 1516.777707 58.850333 
L 1518.301048 57.947036 
L 1519.82439 56.213623 
L 1521.347731 53.790525 
L 1522.871073 50.874045 
L 1525.917756 44.526876 
L 1527.441097 41.610396 
L 1528.964439 39.187298 
L 1530.48778 37.453885 
L 1532.011122 36.550588 
L 1533.534463 36.550588 
L 1535.057805 37.453885 
L 1536.581146 39.187298 
L 1538.104488 41.610396 
L 1539.627829 44.526876 
L 1542.674512 50.874045 
L 1544.197854 53.790525 
L 1545.721195 56.213623 
L 1547.244537 57.947036 
L 1548.767879 58.850333 
L 1550.29122 58.850333 
L 1551.814562 57.947036 
L 1553.337903 56.213623 
L 1554.861245 53.790525 
L 1556.384586 50.874045 
L 1559.431269 44.526876 
L 1560.954611 41.610396 
L 1562.477952 39.187298 
L 1564.001294 37.453885 
L 1565.524635 36.550588 
L 1567.047977 36.550588 
L 1568.571318 37.453885 
L 1570.09466 39.187298 
L 1571.618001 41.610396 
L 1573.141343 44.526876 
L 1576.188026 50.874045 
L 1577.711367 53.790525 
L 1579.234709 56.213623 
L 1580.758051 57.947036 
L 1582.281392 58.850333 
L 1583.804734 58.850333 
L 1585.328075 57.947036 
L 1586.851417 56.213623 
L 1588.374758 53.790525 
L 1589.8981 50.874045 
L 1592.944783 44.526876 
L 1594.468124 41.610396 
L 1595.991466 39.187298 
L 1597.514807 37.453885 
L 1599.038149 36.550588 
L 1600.56149 36.550588 
L 1602.084832 37.453885 
L 1603.608173 39.187298 
L 1605.131515 41.610396 
L 1606.654856 44.526876 
L 1609.701539 50.874045 
L 1611.224881 53.790525 
L 1612.748223 56.213623 
L 1614.271564 57.947036 
L 1615.794906 58.850333 
L 1617.318247 58.850333 
L 1618.841589 57.947036 
L 1620.36493 56.213623 
L 1621.888272 53.790525 
L 1623.411613 50.874045 
L 1626.458296 44.526876 
L 1627.981638 41.610396 
L 1629.504979 39.187298 
L 1631.028321 37.453885 
L 1632.551662 36.550588 
L 1634.075004 36.550588 
L 1635.598345 37.453885 
L 1637.121687 39.187298 
L 1638.645028 41.610396 
L 1638.645028 41.610396 
" clip-path="url(#p523666d8c9)" style="fill: none; stroke: #808080; stroke-width: 0.8; stroke-linecap: square"/>
   </g>
   <g id="patch_13">
    <path d="M 40.735938 61.009412 
L 40.735938 36.550588 
" style="fill: none; stroke: #000000; stroke-width: 0.8; stroke-linejoin: miter; stroke-linecap: square"/>
   </g>
   <g id="patch_14">
    <path d="M 1714.735938 61.009412 
L 1714.735938 36.550588 
" style="fill: none; stroke: #000000; stroke-width: 0.8; stroke-linejoin: miter; stroke-linecap: square"/>
   </g>
   <g id="patch_15">
    <path d="M 40.735938 61.009412 
L 1714.735938 61.009412 
" style="fill: none; stroke: #000000; stroke-width: 0.8; stroke-linejoin: miter; stroke-linecap: square"/>
   </g>
   <g id="patch_16">
    <path d="M 40.735938 36.550588 
L 1714.735938 36.550588 
" style="fill: none; stroke: #000000; stroke-width: 0.8; stroke-linejoin: miter; stroke-linecap: square"/>
   </g>
   <g id="legend_2">
    <g id="patch_17">
     <path d="M 1623.270063 69.049283 
L 1709.661938 69.049283 
Q 1713.061938 69.049283 1713.061938 65.649283 
L 1713.061938 42.396471 
Q 1713.061938 38.996471 1709.661938 38.996471 
L 1623.270063 38.996471 
Q 1619.870063 38.996471 1619.870063 42.396471 
L 1619.870063 65.649283 
Q 1619.870063 69.049283 1623.270063 69.049283 
z
" style="fill: #ffffff; opacity: 0.8; stroke: #cccccc; stroke-linejoin: miter"/>
    </g>
    <g id="line2d_20">
     <path d="M 1626.670063 52.763814 
L 1643.670063 52.763814 
L 1660.670063 52.763814 
" style="fill: none; stroke: #808080; stroke-width: 0.8; stroke-linecap: square"/>
    </g>
    <g id="text_6">
     <!-- TS1 -->
     <g transform="translate(1674.270062 58.713814) scale(0.17 -0.17)">
      <use xlink:href="#DejaVuSans-54"/>
      <use xlink:href="#DejaVuSans-53" x="61.083984"/>
      <use xlink:href="#DejaVuSans-31" x="124.560547"/>
     </g>
    </g>
   </g>
  </g>
  <g id="axes_3">
   <g id="patch_18">
    <path d="M 40.735938 90.36 
L 1714.735938 90.36 
L 1714.735938 65.901176 
L 40.735938 65.901176 
z
" style="fill: #ffffff"/>
   </g>
   <g id="patch_19">
    <path d="M 886.114316 90.36 
L 936.384586 90.36 
L 936.384586 65.901176 
L 886.114316 65.901176 
z
" clip-path="url(#p3331aac6dd)" style="fill: #ff0000; opacity: 0.3"/>
   </g>
   <g id="patch_20">
    <path d="M 1312.649942 90.36 
L 1362.920213 90.36 
L 1362.920213 65.901176 
L 1312.649942 65.901176 
z
" clip-path="url(#p3331aac6dd)" style="fill: #ff0000; opacity: 0.3"/>
   </g>
   <g id="matplotlib.axis_5">
    <g id="xtick_13">
     <g id="line2d_21">
      <g>
       <use xlink:href="#m687620448c" x="116.826847" y="90.36" style="stroke: #000000; stroke-width: 0.8"/>
      </g>
     </g>
     <g id="text_7">
      <!-- 0 -->
      <g transform="translate(110.782472 111.797031) scale(0.19 -0.19)">
       <use xlink:href="#DejaVuSans-30"/>
      </g>
     </g>
    </g>
    <g id="xtick_14">
     <g id="line2d_22">
      <g>
       <use xlink:href="#m687620448c" x="421.495151" y="90.36" style="stroke: #000000; stroke-width: 0.8"/>
      </g>
     </g>
     <g id="text_8">
      <!-- 200 -->
      <g transform="translate(403.362026 111.797031) scale(0.19 -0.19)">
       <defs>
        <path id="DejaVuSans-32" d="M 1228 531 
L 3431 531 
L 3431 0 
L 469 0 
L 469 531 
Q 828 903 1448 1529 
Q 2069 2156 2228 2338 
Q 2531 2678 2651 2914 
Q 2772 3150 2772 3378 
Q 2772 3750 2511 3984 
Q 2250 4219 1831 4219 
Q 1534 4219 1204 4116 
Q 875 4013 500 3803 
L 500 4441 
Q 881 4594 1212 4672 
Q 1544 4750 1819 4750 
Q 2544 4750 2975 4387 
Q 3406 4025 3406 3419 
Q 3406 3131 3298 2873 
Q 3191 2616 2906 2266 
Q 2828 2175 2409 1742 
Q 1991 1309 1228 531 
z
" transform="scale(0.015625)"/>
       </defs>
       <use xlink:href="#DejaVuSans-32"/>
       <use xlink:href="#DejaVuSans-30" x="63.623047"/>
       <use xlink:href="#DejaVuSans-30" x="127.246094"/>
      </g>
     </g>
    </g>
    <g id="xtick_15">
     <g id="line2d_23">
      <g>
       <use xlink:href="#m687620448c" x="726.163456" y="90.36" style="stroke: #000000; stroke-width: 0.8"/>
      </g>
     </g>
     <g id="text_9">
      <!-- 400 -->
      <g transform="translate(708.030331 111.797031) scale(0.19 -0.19)">
       <defs>
        <path id="DejaVuSans-34" d="M 2419 4116 
L 825 1625 
L 2419 1625 
L 2419 4116 
z
M 2253 4666 
L 3047 4666 
L 3047 1625 
L 3713 1625 
L 3713 1100 
L 3047 1100 
L 3047 0 
L 2419 0 
L 2419 1100 
L 313 1100 
L 313 1709 
L 2253 4666 
z
" transform="scale(0.015625)"/>
       </defs>
       <use xlink:href="#DejaVuSans-34"/>
       <use xlink:href="#DejaVuSans-30" x="63.623047"/>
       <use xlink:href="#DejaVuSans-30" x="127.246094"/>
      </g>
     </g>
    </g>
    <g id="xtick_16">
     <g id="line2d_24">
      <g>
       <use xlink:href="#m687620448c" x="1030.831761" y="90.36" style="stroke: #000000; stroke-width: 0.8"/>
      </g>
     </g>
     <g id="text_10">
      <!-- 600 -->
      <g transform="translate(1012.698636 111.797031) scale(0.19 -0.19)">
       <defs>
        <path id="DejaVuSans-36" d="M 2113 2584 
Q 1688 2584 1439 2293 
Q 1191 2003 1191 1497 
Q 1191 994 1439 701 
Q 1688 409 2113 409 
Q 2538 409 2786 701 
Q 3034 994 3034 1497 
Q 3034 2003 2786 2293 
Q 2538 2584 2113 2584 
z
M 3366 4563 
L 3366 3988 
Q 3128 4100 2886 4159 
Q 2644 4219 2406 4219 
Q 1781 4219 1451 3797 
Q 1122 3375 1075 2522 
Q 1259 2794 1537 2939 
Q 1816 3084 2150 3084 
Q 2853 3084 3261 2657 
Q 3669 2231 3669 1497 
Q 3669 778 3244 343 
Q 2819 -91 2113 -91 
Q 1303 -91 875 529 
Q 447 1150 447 2328 
Q 447 3434 972 4092 
Q 1497 4750 2381 4750 
Q 2619 4750 2861 4703 
Q 3103 4656 3366 4563 
z
" transform="scale(0.015625)"/>
       </defs>
       <use xlink:href="#DejaVuSans-36"/>
       <use xlink:href="#DejaVuSans-30" x="63.623047"/>
       <use xlink:href="#DejaVuSans-30" x="127.246094"/>
      </g>
     </g>
    </g>
    <g id="xtick_17">
     <g id="line2d_25">
      <g>
       <use xlink:href="#m687620448c" x="1335.500065" y="90.36" style="stroke: #000000; stroke-width: 0.8"/>
      </g>
     </g>
     <g id="text_11">
      <!-- 800 -->
      <g transform="translate(1317.36694 111.797031) scale(0.19 -0.19)">
       <defs>
        <path id="DejaVuSans-38" d="M 2034 2216 
Q 1584 2216 1326 1975 
Q 1069 1734 1069 1313 
Q 1069 891 1326 650 
Q 1584 409 2034 409 
Q 2484 409 2743 651 
Q 3003 894 3003 1313 
Q 3003 1734 2745 1975 
Q 2488 2216 2034 2216 
z
M 1403 2484 
Q 997 2584 770 2862 
Q 544 3141 544 3541 
Q 544 4100 942 4425 
Q 1341 4750 2034 4750 
Q 2731 4750 3128 4425 
Q 3525 4100 3525 3541 
Q 3525 3141 3298 2862 
Q 3072 2584 2669 2484 
Q 3125 2378 3379 2068 
Q 3634 1759 3634 1313 
Q 3634 634 3220 271 
Q 2806 -91 2034 -91 
Q 1263 -91 848 271 
Q 434 634 434 1313 
Q 434 1759 690 2068 
Q 947 2378 1403 2484 
z
M 1172 3481 
Q 1172 3119 1398 2916 
Q 1625 2713 2034 2713 
Q 2441 2713 2670 2916 
Q 2900 3119 2900 3481 
Q 2900 3844 2670 4047 
Q 2441 4250 2034 4250 
Q 1625 4250 1398 4047 
Q 1172 3844 1172 3481 
z
" transform="scale(0.015625)"/>
       </defs>
       <use xlink:href="#DejaVuSans-38"/>
       <use xlink:href="#DejaVuSans-30" x="63.623047"/>
       <use xlink:href="#DejaVuSans-30" x="127.246094"/>
      </g>
     </g>
    </g>
    <g id="xtick_18">
     <g id="line2d_26">
      <g>
       <use xlink:href="#m687620448c" x="1640.16837" y="90.36" style="stroke: #000000; stroke-width: 0.8"/>
      </g>
     </g>
     <g id="text_12">
      <!-- 1000 -->
      <g transform="translate(1615.99087 111.797031) scale(0.19 -0.19)">
       <use xlink:href="#DejaVuSans-31"/>
       <use xlink:href="#DejaVuSans-30" x="63.623047"/>
       <use xlink:href="#DejaVuSans-30" x="127.246094"/>
       <use xlink:href="#DejaVuSans-30" x="190.869141"/>
      </g>
     </g>
    </g>
   </g>
   <g id="matplotlib.axis_6">
    <g id="ytick_5">
     <g id="line2d_27">
      <g>
       <use xlink:href="#maae3f949f2" x="40.735938" y="89.362561" style="stroke: #000000; stroke-width: 0.8"/>
      </g>
     </g>
     <g id="text_13">
      <!-- −1 -->
      <g transform="translate(7.2 96.201154) scale(0.18 -0.18)">
       <use xlink:href="#DejaVuSans-2212"/>
       <use xlink:href="#DejaVuSans-31" x="83.789062"/>
      </g>
     </g>
    </g>
    <g id="ytick_6">
     <g id="line2d_28">
      <g>
       <use xlink:href="#maae3f949f2" x="40.735938" y="78.130588" style="stroke: #000000; stroke-width: 0.8"/>
      </g>
     </g>
     <g id="text_14">
      <!-- 0 -->
      <g transform="translate(22.283438 84.969182) scale(0.18 -0.18)">
       <use xlink:href="#DejaVuSans-30"/>
      </g>
     </g>
    </g>
    <g id="ytick_7">
     <g id="line2d_29">
      <g>
       <use xlink:href="#maae3f949f2" x="40.735938" y="66.898616" style="stroke: #000000; stroke-width: 0.8"/>
      </g>
     </g>
     <g id="text_15">
      <!-- 1 -->
      <g transform="translate(22.283438 73.73721) scale(0.18 -0.18)">
       <use xlink:href="#DejaVuSans-31"/>
      </g>
     </g>
    </g>
   </g>
   <g id="line2d_30">
    <path d="M 116.826847 78.130588 
L 118.350188 74.966176 
L 119.87353 72.058126 
L 121.396871 69.64203 
L 122.920213 67.913627 
L 124.443554 67.012941 
L 125.966896 67.012941 
L 127.490237 67.913627 
L 129.013579 69.64203 
L 130.53692 72.058126 
L 132.060262 74.966176 
L 135.106945 81.295001 
L 136.630286 84.203051 
L 138.153628 86.619147 
L 139.676969 88.34755 
L 141.200311 89.248235 
L 142.723652 89.248235 
L 144.246994 88.34755 
L 145.770336 86.619147 
L 147.293677 84.203051 
L 148.817019 81.295001 
L 151.863702 74.966176 
L 153.387043 72.058126 
L 154.910385 69.64203 
L 156.433726 67.913627 
L 157.957068 67.012941 
L 159.480409 67.012941 
L 161.003751 67.913627 
L 162.527092 69.64203 
L 164.050434 72.058126 
L 165.573775 74.966176 
L 168.620458 81.295001 
L 170.1438 84.203051 
L 171.667141 86.619147 
L 173.190483 88.34755 
L 174.713824 89.248235 
L 176.237166 89.248235 
L 177.760508 88.34755 
L 179.283849 86.619147 
L 180.807191 84.203051 
L 182.330532 81.295001 
L 185.377215 74.966176 
L 186.900557 72.058126 
L 188.423898 69.64203 
L 189.94724 67.913627 
L 191.470581 67.012941 
L 192.993923 67.012941 
L 194.517264 67.913627 
L 196.040606 69.64203 
L 197.563947 72.058126 
L 199.087289 74.966176 
L 202.133972 81.295001 
L 203.657313 84.203051 
L 205.180655 86.619147 
L 206.703996 88.34755 
L 208.227338 89.248235 
L 209.75068 89.248235 
L 211.274021 88.34755 
L 212.797363 86.619147 
L 214.320704 84.203051 
L 215.844046 81.295001 
L 218.890729 74.966176 
L 220.41407 72.058126 
L 221.937412 69.64203 
L 223.460753 67.913627 
L 224.984095 67.012941 
L 226.507436 67.012941 
L 228.030778 67.913627 
L 229.554119 69.64203 
L 231.077461 72.058126 
L 232.600802 74.966176 
L 235.647485 81.295001 
L 237.170827 84.203051 
L 238.694168 86.619147 
L 240.21751 88.34755 
L 241.740852 89.248235 
L 243.264193 89.248235 
L 244.787535 88.34755 
L 246.310876 86.619147 
L 247.834218 84.203051 
L 249.357559 81.295001 
L 252.404242 74.966176 
L 253.927584 72.058126 
L 255.450925 69.64203 
L 256.974267 67.913627 
L 258.497608 67.012941 
L 260.02095 67.012941 
L 261.544291 67.913627 
L 263.067633 69.64203 
L 264.590974 72.058126 
L 266.114316 74.966176 
L 269.160999 81.295001 
L 270.68434 84.203051 
L 272.207682 86.619147 
L 273.731023 88.34755 
L 275.254365 89.248235 
L 276.777707 89.248235 
L 278.301048 88.34755 
L 279.82439 86.619147 
L 281.347731 84.203051 
L 282.871073 81.295001 
L 285.917756 74.966176 
L 287.441097 72.058126 
L 288.964439 69.64203 
L 290.48778 67.913627 
L 292.011122 67.012941 
L 293.534463 67.012941 
L 295.057805 67.913627 
L 296.581146 69.64203 
L 298.104488 72.058126 
L 299.627829 74.966176 
L 302.674512 81.295001 
L 304.197854 84.203051 
L 305.721195 86.619147 
L 307.244537 88.34755 
L 308.767879 89.248235 
L 310.29122 89.248235 
L 311.814562 88.34755 
L 313.337903 86.619147 
L 314.861245 84.203051 
L 316.384586 81.295001 
L 319.431269 74.966176 
L 320.954611 72.058126 
L 322.477952 69.64203 
L 324.001294 67.913627 
L 325.524635 67.012941 
L 327.047977 67.012941 
L 328.571318 67.913627 
L 330.09466 69.64203 
L 331.618001 72.058126 
L 333.141343 74.966176 
L 336.188026 81.295001 
L 337.711367 84.203051 
L 339.234709 86.619147 
L 340.758051 88.34755 
L 342.281392 89.248235 
L 343.804734 89.248235 
L 345.328075 88.34755 
L 346.851417 86.619147 
L 348.374758 84.203051 
L 349.8981 81.295001 
L 352.944783 74.966176 
L 354.468124 72.058126 
L 355.991466 69.64203 
L 357.514807 67.913627 
L 359.038149 67.012941 
L 360.56149 67.012941 
L 362.084832 67.913627 
L 363.608173 69.64203 
L 365.131515 72.058126 
L 366.654856 74.966176 
L 369.701539 81.295001 
L 371.224881 84.203051 
L 372.748223 86.619147 
L 374.271564 88.34755 
L 375.794906 89.248235 
L 377.318247 89.248235 
L 378.841589 88.34755 
L 380.36493 86.619147 
L 381.888272 84.203051 
L 383.411613 81.295001 
L 386.458296 74.966176 
L 387.981638 72.058126 
L 389.504979 69.64203 
L 391.028321 67.913627 
L 392.551662 67.012941 
L 394.075004 67.012941 
L 395.598345 67.913627 
L 397.121687 69.64203 
L 398.645028 72.058126 
L 400.16837 74.966176 
L 403.215053 81.295001 
L 404.738395 84.203051 
L 406.261736 86.619147 
L 407.785078 88.34755 
L 409.308419 89.248235 
L 410.831761 89.248235 
L 412.355102 88.34755 
L 413.878444 86.619147 
L 415.401785 84.203051 
L 416.925127 81.295001 
L 419.97181 74.966176 
L 421.495151 72.058126 
L 423.018493 69.64203 
L 424.541834 67.913627 
L 426.065176 67.012941 
L 427.588517 67.012941 
L 429.111859 67.913627 
L 430.6352 69.64203 
L 432.158542 72.058126 
L 433.681883 74.966176 
L 436.728566 81.295001 
L 438.251908 84.203051 
L 439.77525 86.619147 
L 441.298591 88.34755 
L 442.821933 89.248235 
L 444.345274 89.248235 
L 445.868616 88.34755 
L 447.391957 86.619147 
L 448.915299 84.203051 
L 450.43864 81.295001 
L 453.485323 74.966176 
L 455.008665 72.058126 
L 456.532006 69.64203 
L 458.055348 67.913627 
L 459.578689 67.012941 
L 461.102031 67.012941 
L 462.625372 67.913627 
L 464.148714 69.64203 
L 465.672055 72.058126 
L 467.195397 74.966176 
L 470.24208 81.295001 
L 471.765422 84.203051 
L 473.288763 86.619147 
L 474.812105 88.34755 
L 476.335446 89.248235 
L 477.858788 89.248235 
L 479.382129 88.34755 
L 480.905471 86.619147 
L 482.428812 84.203051 
L 483.952154 81.295001 
L 486.998837 74.966176 
L 488.522178 72.058126 
L 490.04552 69.64203 
L 491.568861 67.913627 
L 493.092203 67.012941 
L 494.615544 67.012941 
L 496.138886 67.913627 
L 497.662227 69.64203 
L 499.185569 72.058126 
L 500.70891 74.966176 
L 503.755594 81.295001 
L 505.278935 84.203051 
L 506.802277 86.619147 
L 508.325618 88.34755 
L 509.84896 89.248235 
L 511.372301 89.248235 
L 512.895643 88.34755 
L 514.418984 86.619147 
L 515.942326 84.203051 
L 517.465667 81.295001 
L 520.51235 74.966176 
L 522.035692 72.058126 
L 523.559033 69.64203 
L 525.082375 67.913627 
L 526.605716 67.012941 
L 528.129058 67.012941 
L 529.652399 67.913627 
L 531.175741 69.64203 
L 532.699082 72.058126 
L 534.222424 74.966176 
L 537.269107 81.295001 
L 538.792449 84.203051 
L 540.31579 86.619147 
L 541.839132 88.34755 
L 543.362473 89.248235 
L 544.885815 89.248235 
L 546.409156 88.34755 
L 547.932498 86.619147 
L 549.455839 84.203051 
L 550.979181 81.295001 
L 554.025864 74.966176 
L 555.549205 72.058126 
L 557.072547 69.64203 
L 558.595888 67.913627 
L 560.11923 67.012941 
L 561.642571 67.012941 
L 563.165913 67.913627 
L 564.689254 69.64203 
L 566.212596 72.058126 
L 567.735937 74.966176 
L 570.782621 81.295001 
L 572.305962 84.203051 
L 573.829304 86.619147 
L 575.352645 88.34755 
L 576.875987 89.248235 
L 578.399328 89.248235 
L 579.92267 88.34755 
L 581.446011 86.619147 
L 582.969353 84.203051 
L 584.492694 81.295001 
L 587.539377 74.966176 
L 589.062719 72.058126 
L 590.58606 69.64203 
L 592.109402 67.913627 
L 593.632743 67.012941 
L 595.156085 67.012941 
L 596.679426 67.913627 
L 598.202768 69.64203 
L 599.726109 72.058126 
L 601.249451 74.966176 
L 604.296134 81.295001 
L 605.819476 84.203051 
L 607.342817 86.619147 
L 608.866159 88.34755 
L 610.3895 89.248235 
L 611.912842 89.248235 
L 613.436183 88.34755 
L 614.959525 86.619147 
L 616.482866 84.203051 
L 618.006208 81.295001 
L 621.052891 74.966176 
L 622.576232 72.058126 
L 624.099574 69.64203 
L 625.622915 67.913627 
L 627.146257 67.012941 
L 628.669598 67.012941 
L 630.19294 67.913627 
L 631.716281 69.64203 
L 633.239623 72.058126 
L 634.762965 74.966176 
L 637.809648 81.295001 
L 639.332989 84.203051 
L 640.856331 86.619147 
L 642.379672 88.34755 
L 643.903014 89.248235 
L 645.426355 89.248235 
L 646.949697 88.34755 
L 648.473038 86.619147 
L 649.99638 84.203051 
L 651.519721 81.295001 
L 654.566404 74.966176 
L 656.089746 72.058126 
L 657.613087 69.64203 
L 659.136429 67.913627 
L 660.65977 67.012941 
L 662.183112 67.012941 
L 663.706453 67.913627 
L 665.229795 69.64203 
L 666.753137 72.058126 
L 668.276478 74.966176 
L 671.323161 81.295001 
L 672.846503 84.203051 
L 674.369844 86.619147 
L 675.893186 88.34755 
L 677.416527 89.248235 
L 678.939869 89.248235 
L 680.46321 88.34755 
L 681.986552 86.619147 
L 683.509893 84.203051 
L 685.033235 81.295001 
L 688.079918 74.966176 
L 689.603259 72.058126 
L 691.126601 69.64203 
L 692.649942 67.913627 
L 694.173284 67.012941 
L 695.696625 67.012941 
L 697.219967 67.913627 
L 698.743309 69.64203 
L 700.26665 72.058126 
L 701.789992 74.966176 
L 704.836675 81.295001 
L 706.360016 84.203051 
L 707.883358 86.619147 
L 709.406699 88.34755 
L 710.930041 89.248235 
L 712.453382 89.248235 
L 713.976724 88.34755 
L 715.500065 86.619147 
L 717.023407 84.203051 
L 718.546748 81.295001 
L 721.593431 74.966176 
L 723.116773 72.058126 
L 724.640114 69.64203 
L 726.163456 67.913627 
L 727.686797 67.012941 
L 729.210139 67.012941 
L 730.73348 67.913627 
L 732.256822 69.64203 
L 733.780164 72.058126 
L 735.303505 74.966176 
L 738.350188 81.295001 
L 739.87353 84.203051 
L 741.396871 86.619147 
L 742.920213 88.34755 
L 744.443554 89.248235 
L 745.966896 89.248235 
L 747.490237 88.34755 
L 749.013579 86.619147 
L 750.53692 84.203051 
L 752.060262 81.295001 
L 755.106945 74.966176 
L 756.630286 72.058126 
L 758.153628 69.64203 
L 759.676969 67.913627 
L 761.200311 67.012941 
L 762.723652 67.012941 
L 764.246994 67.913627 
L 765.770336 69.64203 
L 767.293677 72.058126 
L 768.817019 74.966176 
L 771.863702 81.295001 
L 773.387043 84.203051 
L 774.910385 86.619147 
L 776.433726 88.34755 
L 777.957068 89.248235 
L 779.480409 89.248235 
L 781.003751 88.34755 
L 782.527092 86.619147 
L 784.050434 84.203051 
L 785.573775 81.295001 
L 788.620458 74.966176 
L 790.1438 72.058126 
L 791.667141 69.64203 
L 793.190483 67.913627 
L 794.713824 67.012941 
L 796.237166 67.012941 
L 797.760508 67.913627 
L 799.283849 69.64203 
L 800.807191 72.058126 
L 802.330532 74.966176 
L 805.377215 81.295001 
L 806.900557 84.203051 
L 808.423898 86.619147 
L 809.94724 88.34755 
L 811.470581 89.248235 
L 812.993923 89.248235 
L 814.517264 88.34755 
L 816.040606 86.619147 
L 817.563947 84.203051 
L 819.087289 81.295001 
L 822.133972 74.966176 
L 823.657313 72.058126 
L 825.180655 69.64203 
L 826.703996 67.913627 
L 828.227338 67.012941 
L 829.75068 67.012941 
L 831.274021 67.913627 
L 832.797363 69.64203 
L 834.320704 72.058126 
L 835.844046 74.966176 
L 838.890729 81.295001 
L 840.41407 84.203051 
L 841.937412 86.619147 
L 843.460753 88.34755 
L 844.984095 89.248235 
L 846.507436 89.248235 
L 848.030778 88.34755 
L 849.554119 86.619147 
L 851.077461 84.203051 
L 852.600802 81.295001 
L 855.647485 74.966176 
L 857.170827 72.058126 
L 858.694168 69.64203 
L 860.21751 67.913627 
L 861.740852 67.012941 
L 863.264193 67.012941 
L 864.787535 67.913627 
L 866.310876 69.64203 
L 867.834218 72.058126 
L 869.357559 74.966176 
L 872.404242 81.295001 
L 873.927584 84.203051 
L 875.450925 86.619147 
L 876.974267 88.34755 
L 878.497608 89.248235 
L 880.02095 89.248235 
L 881.544291 88.34755 
L 883.067633 86.619147 
L 884.590974 84.203051 
L 886.114316 81.295001 
L 889.160999 74.966176 
L 890.68434 72.058126 
L 892.207682 69.64203 
L 893.731023 67.913627 
L 895.254365 67.012941 
L 896.777707 67.012941 
L 898.301048 67.913627 
L 899.82439 69.64203 
L 901.347731 72.058126 
L 902.871073 74.966176 
L 905.917756 81.295001 
L 907.441097 84.203051 
L 908.964439 88.082733 
L 910.48778 80.914466 
L 912.011122 81.879659 
L 913.534463 85.864984 
L 915.057805 87.046259 
L 916.581146 86.619147 
L 918.104488 84.203051 
L 919.627829 81.295001 
L 922.674512 74.966176 
L 924.197854 72.058126 
L 925.721195 69.64203 
L 927.244537 67.913627 
L 928.767879 67.012941 
L 930.29122 67.012941 
L 931.814562 67.913627 
L 933.337903 69.64203 
L 934.861245 72.058126 
L 936.384586 74.966176 
L 939.431269 81.295001 
L 940.954611 84.203051 
L 942.477952 86.619147 
L 944.001294 88.34755 
L 945.524635 89.248235 
L 947.047977 89.248235 
L 948.571318 88.34755 
L 950.09466 86.619147 
L 951.618001 84.203051 
L 953.141343 81.295001 
L 956.188026 74.966176 
L 957.711367 72.058126 
L 959.234709 69.64203 
L 960.758051 67.913627 
L 962.281392 67.012941 
L 963.804734 67.012941 
L 965.328075 67.913627 
L 966.851417 69.64203 
L 968.374758 72.058126 
L 969.8981 74.966176 
L 972.944783 81.295001 
L 974.468124 84.203051 
L 975.991466 86.619147 
L 977.514807 88.34755 
L 979.038149 89.248235 
L 980.56149 89.248235 
L 982.084832 88.34755 
L 983.608173 86.619147 
L 985.131515 84.203051 
L 986.654856 81.295001 
L 989.701539 74.966176 
L 991.224881 72.058126 
L 992.748223 69.64203 
L 994.271564 67.913627 
L 995.794906 67.012941 
L 997.318247 67.012941 
L 998.841589 67.913627 
L 1000.36493 69.64203 
L 1001.888272 72.058126 
L 1003.411613 74.966176 
L 1006.458296 81.295001 
L 1007.981638 84.203051 
L 1009.504979 86.619147 
L 1011.028321 88.34755 
L 1012.551662 89.248235 
L 1014.075004 89.248235 
L 1015.598345 88.34755 
L 1017.121687 86.619147 
L 1018.645028 84.203051 
L 1020.16837 81.295001 
L 1023.215053 74.966176 
L 1024.738395 72.058126 
L 1026.261736 69.64203 
L 1027.785078 67.913627 
L 1029.308419 67.012941 
L 1030.831761 67.012941 
L 1032.355102 67.913627 
L 1033.878444 69.64203 
L 1035.401785 72.058126 
L 1036.925127 74.966176 
L 1039.97181 81.295001 
L 1041.495151 84.203051 
L 1043.018493 86.619147 
L 1044.541834 88.34755 
L 1046.065176 89.248235 
L 1047.588517 89.248235 
L 1049.111859 88.34755 
L 1050.6352 86.619147 
L 1052.158542 84.203051 
L 1053.681883 81.295001 
L 1056.728566 74.966176 
L 1058.251908 72.058126 
L 1059.77525 69.64203 
L 1061.298591 67.913627 
L 1062.821933 67.012941 
L 1064.345274 67.012941 
L 1065.868616 67.913627 
L 1067.391957 69.64203 
L 1068.915299 72.058126 
L 1070.43864 74.966176 
L 1073.485323 81.295001 
L 1075.008665 84.203051 
L 1076.532006 86.619147 
L 1078.055348 88.34755 
L 1079.578689 89.248235 
L 1081.102031 89.248235 
L 1082.625372 88.34755 
L 1084.148714 86.619147 
L 1085.672055 84.203051 
L 1087.195397 81.295001 
L 1090.24208 74.966176 
L 1091.765422 72.058126 
L 1093.288763 69.64203 
L 1094.812105 67.913627 
L 1096.335446 67.012941 
L 1097.858788 67.012941 
L 1099.382129 67.913627 
L 1100.905471 69.64203 
L 1102.428812 72.058126 
L 1103.952154 74.966176 
L 1106.998837 81.295001 
L 1108.522178 84.203051 
L 1110.04552 86.619147 
L 1111.568861 88.34755 
L 1113.092203 89.248235 
L 1114.615544 89.248235 
L 1116.138886 88.34755 
L 1117.662227 86.619147 
L 1119.185569 84.203051 
L 1120.70891 81.295001 
L 1123.755594 74.966176 
L 1125.278935 72.058126 
L 1126.802277 69.64203 
L 1128.325618 67.913627 
L 1129.84896 67.012941 
L 1131.372301 67.012941 
L 1132.895643 67.913627 
L 1134.418984 69.64203 
L 1135.942326 72.058126 
L 1137.465667 74.966176 
L 1140.51235 81.295001 
L 1142.035692 84.203051 
L 1143.559033 86.619147 
L 1145.082375 88.34755 
L 1146.605716 89.248235 
L 1148.129058 89.248235 
L 1149.652399 88.34755 
L 1151.175741 86.619147 
L 1152.699082 84.203051 
L 1154.222424 81.295001 
L 1157.269107 74.966176 
L 1158.792449 72.058126 
L 1160.31579 69.64203 
L 1161.839132 67.913627 
L 1163.362473 67.012941 
L 1164.885815 67.012941 
L 1166.409156 67.913627 
L 1167.932498 69.64203 
L 1169.455839 72.058126 
L 1170.979181 74.966176 
L 1174.025864 81.295001 
L 1175.549205 84.203051 
L 1177.072547 86.619147 
L 1178.595888 88.34755 
L 1180.11923 89.248235 
L 1181.642571 89.248235 
L 1183.165913 88.34755 
L 1184.689254 86.619147 
L 1186.212596 84.203051 
L 1187.735937 81.295001 
L 1190.782621 74.966176 
L 1192.305962 72.058126 
L 1193.829304 69.64203 
L 1195.352645 67.913627 
L 1196.875987 67.012941 
L 1198.399328 67.012941 
L 1199.92267 67.913627 
L 1201.446011 69.64203 
L 1202.969353 72.058126 
L 1204.492694 74.966176 
L 1207.539377 81.295001 
L 1209.062719 84.203051 
L 1210.58606 86.619147 
L 1212.109402 88.34755 
L 1213.632743 89.248235 
L 1215.156085 89.248235 
L 1216.679426 88.34755 
L 1218.202768 86.619147 
L 1219.726109 84.203051 
L 1221.249451 81.295001 
L 1224.296134 74.966176 
L 1225.819476 72.058126 
L 1227.342817 69.64203 
L 1228.866159 67.913627 
L 1230.3895 67.012941 
L 1231.912842 67.012941 
L 1233.436183 67.913627 
L 1234.959525 69.64203 
L 1236.482866 72.058126 
L 1238.006208 74.966176 
L 1241.052891 81.295001 
L 1242.576232 84.203051 
L 1244.099574 86.619147 
L 1245.622915 88.34755 
L 1247.146257 89.248235 
L 1248.669598 89.248235 
L 1250.19294 88.34755 
L 1251.716281 86.619147 
L 1253.239623 84.203051 
L 1254.762965 81.295001 
L 1257.809648 74.966176 
L 1259.332989 72.058126 
L 1260.856331 69.64203 
L 1262.379672 67.913627 
L 1263.903014 67.012941 
L 1265.426355 67.012941 
L 1266.949697 67.913627 
L 1268.473038 69.64203 
L 1269.99638 72.058126 
L 1271.519721 74.966176 
L 1274.566404 81.295001 
L 1276.089746 84.203051 
L 1277.613087 86.619147 
L 1279.136429 88.34755 
L 1280.65977 89.248235 
L 1282.183112 89.248235 
L 1283.706453 88.34755 
L 1285.229795 86.619147 
L 1286.753137 84.203051 
L 1288.276478 81.295001 
L 1291.323161 74.966176 
L 1292.846503 72.058126 
L 1294.369844 69.64203 
L 1295.893186 67.913627 
L 1297.416527 67.012941 
L 1298.939869 67.012941 
L 1300.46321 67.913627 
L 1301.986552 69.64203 
L 1303.509893 72.058126 
L 1305.033235 74.966176 
L 1308.079918 81.295001 
L 1309.603259 84.203051 
L 1311.126601 86.619147 
L 1312.649942 88.34755 
L 1314.173284 89.248235 
L 1315.696625 89.248235 
L 1317.219967 88.34755 
L 1318.743309 86.619147 
L 1320.26665 84.203051 
L 1321.789992 81.295001 
L 1324.836675 74.966176 
L 1326.360016 72.058126 
L 1327.883358 69.64203 
L 1329.406699 67.913627 
L 1330.930041 67.012941 
L 1332.453382 67.012941 
L 1333.976724 67.913627 
L 1335.500065 67.157399 
L 1337.023407 67.034967 
L 1338.546748 78.119554 
L 1340.07009 74.168524 
L 1341.593431 85.520066 
L 1343.116773 84.203051 
L 1344.640114 86.619147 
L 1346.163456 88.34755 
L 1347.686797 89.248235 
L 1349.210139 89.248235 
L 1350.73348 88.34755 
L 1352.256822 86.619147 
L 1353.780164 84.203051 
L 1355.303505 81.295001 
L 1358.350188 74.966176 
L 1359.87353 72.058126 
L 1361.396871 69.64203 
L 1362.920213 67.913627 
L 1364.443554 67.012941 
L 1365.966896 67.012941 
L 1367.490237 67.913627 
L 1369.013579 69.64203 
L 1370.53692 72.058126 
L 1372.060262 74.966176 
L 1375.106945 81.295001 
L 1376.630286 84.203051 
L 1378.153628 86.619147 
L 1379.676969 88.34755 
L 1381.200311 89.248235 
L 1382.723652 89.248235 
L 1384.246994 88.34755 
L 1385.770336 86.619147 
L 1387.293677 84.203051 
L 1388.817019 81.295001 
L 1391.863702 74.966176 
L 1393.387043 72.058126 
L 1394.910385 69.64203 
L 1396.433726 67.913627 
L 1397.957068 67.012941 
L 1399.480409 67.012941 
L 1401.003751 67.913627 
L 1402.527092 69.64203 
L 1404.050434 72.058126 
L 1405.573775 74.966176 
L 1408.620458 81.295001 
L 1410.1438 84.203051 
L 1411.667141 86.619147 
L 1413.190483 88.34755 
L 1414.713824 89.248235 
L 1416.237166 89.248235 
L 1417.760508 88.34755 
L 1419.283849 86.619147 
L 1420.807191 84.203051 
L 1422.330532 81.295001 
L 1425.377215 74.966176 
L 1426.900557 72.058126 
L 1428.423898 69.64203 
L 1429.94724 67.913627 
L 1431.470581 67.012941 
L 1432.993923 67.012941 
L 1434.517264 67.913627 
L 1436.040606 69.64203 
L 1437.563947 72.058126 
L 1439.087289 74.966176 
L 1442.133972 81.295001 
L 1443.657313 84.203051 
L 1445.180655 86.619147 
L 1446.703996 88.34755 
L 1448.227338 89.248235 
L 1449.75068 89.248235 
L 1451.274021 88.34755 
L 1452.797363 86.619147 
L 1454.320704 84.203051 
L 1455.844046 81.295001 
L 1458.890729 74.966176 
L 1460.41407 72.058126 
L 1461.937412 69.64203 
L 1463.460753 67.913627 
L 1464.984095 67.012941 
L 1466.507436 67.012941 
L 1468.030778 67.913627 
L 1469.554119 69.64203 
L 1471.077461 72.058126 
L 1472.600802 74.966176 
L 1475.647485 81.295001 
L 1477.170827 84.203051 
L 1478.694168 86.619147 
L 1480.21751 88.34755 
L 1481.740852 89.248235 
L 1483.264193 89.248235 
L 1484.787535 88.34755 
L 1486.310876 86.619147 
L 1487.834218 84.203051 
L 1489.357559 81.295001 
L 1492.404242 74.966176 
L 1493.927584 72.058126 
L 1495.450925 69.64203 
L 1496.974267 67.913627 
L 1498.497608 67.012941 
L 1500.02095 67.012941 
L 1501.544291 67.913627 
L 1503.067633 69.64203 
L 1504.590974 72.058126 
L 1506.114316 74.966176 
L 1509.160999 81.295001 
L 1510.68434 84.203051 
L 1512.207682 86.619147 
L 1513.731023 88.34755 
L 1515.254365 89.248235 
L 1516.777707 89.248235 
L 1518.301048 88.34755 
L 1519.82439 86.619147 
L 1521.347731 84.203051 
L 1522.871073 81.295001 
L 1525.917756 74.966176 
L 1527.441097 72.058126 
L 1528.964439 69.64203 
L 1530.48778 67.913627 
L 1532.011122 67.012941 
L 1533.534463 67.012941 
L 1535.057805 67.913627 
L 1536.581146 69.64203 
L 1538.104488 72.058126 
L 1539.627829 74.966176 
L 1542.674512 81.295001 
L 1544.197854 84.203051 
L 1545.721195 86.619147 
L 1547.244537 88.34755 
L 1548.767879 89.248235 
L 1550.29122 89.248235 
L 1551.814562 88.34755 
L 1553.337903 86.619147 
L 1554.861245 84.203051 
L 1556.384586 81.295001 
L 1559.431269 74.966176 
L 1560.954611 72.058126 
L 1562.477952 69.64203 
L 1564.001294 67.913627 
L 1565.524635 67.012941 
L 1567.047977 67.012941 
L 1568.571318 67.913627 
L 1570.09466 69.64203 
L 1571.618001 72.058126 
L 1573.141343 74.966176 
L 1576.188026 81.295001 
L 1577.711367 84.203051 
L 1579.234709 86.619147 
L 1580.758051 88.34755 
L 1582.281392 89.248235 
L 1583.804734 89.248235 
L 1585.328075 88.34755 
L 1586.851417 86.619147 
L 1588.374758 84.203051 
L 1589.8981 81.295001 
L 1592.944783 74.966176 
L 1594.468124 72.058126 
L 1595.991466 69.64203 
L 1597.514807 67.913627 
L 1599.038149 67.012941 
L 1600.56149 67.012941 
L 1602.084832 67.913627 
L 1603.608173 69.64203 
L 1605.131515 72.058126 
L 1606.654856 74.966176 
L 1609.701539 81.295001 
L 1611.224881 84.203051 
L 1612.748223 86.619147 
L 1614.271564 88.34755 
L 1615.794906 89.248235 
L 1617.318247 89.248235 
L 1618.841589 88.34755 
L 1620.36493 86.619147 
L 1621.888272 84.203051 
L 1623.411613 81.295001 
L 1626.458296 74.966176 
L 1627.981638 72.058126 
L 1629.504979 69.64203 
L 1631.028321 67.913627 
L 1632.551662 67.012941 
L 1634.075004 67.012941 
L 1635.598345 67.913627 
L 1637.121687 69.64203 
L 1638.645028 72.058126 
L 1638.645028 72.058126 
" clip-path="url(#p3331aac6dd)" style="fill: none; stroke: #808080; stroke-width: 0.8; stroke-linecap: square"/>
   </g>
   <g id="patch_21">
    <path d="M 40.735938 90.36 
L 40.735938 65.901176 
" style="fill: none; stroke: #000000; stroke-width: 0.8; stroke-linejoin: miter; stroke-linecap: square"/>
   </g>
   <g id="patch_22">
    <path d="M 1714.735938 90.36 
L 1714.735938 65.901176 
" style="fill: none; stroke: #000000; stroke-width: 0.8; stroke-linejoin: miter; stroke-linecap: square"/>
   </g>
   <g id="patch_23">
    <path d="M 40.735938 90.36 
L 1714.735938 90.36 
" style="fill: none; stroke: #000000; stroke-width: 0.8; stroke-linejoin: miter; stroke-linecap: square"/>
   </g>
   <g id="patch_24">
    <path d="M 40.735938 65.901176 
L 1714.735938 65.901176 
" style="fill: none; stroke: #000000; stroke-width: 0.8; stroke-linejoin: miter; stroke-linecap: square"/>
   </g>
   <g id="legend_3">
    <g id="patch_25">
     <path d="M 1623.270063 98.399871 
L 1709.661938 98.399871 
Q 1713.061938 98.399871 1713.061938 94.999871 
L 1713.061938 71.747059 
Q 1713.061938 68.347059 1709.661938 68.347059 
L 1623.270063 68.347059 
Q 1619.870063 68.347059 1619.870063 71.747059 
L 1619.870063 94.999871 
Q 1619.870063 98.399871 1623.270063 98.399871 
z
" style="fill: #ffffff; opacity: 0.8; stroke: #cccccc; stroke-linejoin: miter"/>
    </g>
    <g id="line2d_31">
     <path d="M 1626.670063 82.114403 
L 1643.670063 82.114403 
L 1660.670063 82.114403 
" style="fill: none; stroke: #808080; stroke-width: 0.8; stroke-linecap: square"/>
    </g>
    <g id="text_16">
     <!-- TS2 -->
     <g transform="translate(1674.270062 88.064403) scale(0.17 -0.17)">
      <use xlink:href="#DejaVuSans-54"/>
      <use xlink:href="#DejaVuSans-53" x="61.083984"/>
      <use xlink:href="#DejaVuSans-32" x="124.560547"/>
     </g>
    </g>
   </g>
  </g>
 </g>
 <defs>
  <clipPath id="p9deb6c06bd">
   <rect x="40.735938" y="7.2" width="1674" height="24.458824"/>
  </clipPath>
  <clipPath id="p523666d8c9">
   <rect x="40.735938" y="36.550588" width="1674" height="24.458824"/>
  </clipPath>
  <clipPath id="p3331aac6dd">
   <rect x="40.735938" y="65.901176" width="1674" height="24.458824"/>
  </clipPath>
 </defs>
</svg>
