<?xml version="1.0" encoding="utf-8" standalone="no"?>
<!DOCTYPE svg PUBLIC "-//W3C//DTD SVG 1.1//EN"
  "http://www.w3.org/Graphics/SVG/1.1/DTD/svg11.dtd">
<svg xmlns:xlink="http://www.w3.org/1999/xlink" width="1724.025625pt" height="123.254287pt" viewBox="0 0 1724.025625 123.254287" xmlns="http://www.w3.org/2000/svg" version="1.1">
 <metadata>
  <rdf:RDF xmlns:dc="http://purl.org/dc/elements/1.1/" xmlns:cc="http://creativecommons.org/ns#" xmlns:rdf="http://www.w3.org/1999/02/22-rdf-syntax-ns#">
   <cc:Work>
    <dc:type rdf:resource="http://purl.org/dc/dcmitype/StillImage"/>
    <dc:date>2024-11-06T08:49:02.638607</dc:date>
    <dc:format>image/svg+xml</dc:format>
    <dc:creator>
     <cc:Agent>
      <dc:title>Matplotlib v3.9.2, https://matplotlib.org/</dc:title>
     </cc:Agent>
    </dc:creator>
   </cc:Work>
  </rdf:RDF>
 </metadata>
 <defs>
  <style type="text/css">*{stroke-linejoin: round; stroke-linecap: butt}</style>
 </defs>
 <g id="figure_1">
  <g id="patch_1">
   <path d="M 0 123.254287 
L 1724.025625 123.254287 
L 1724.025625 0 
L 0 0 
z
" style="fill: #ffffff"/>
  </g>
  <g id="axes_1">
   <g id="patch_2">
    <path d="M 42.825625 31.964673 
L 1716.825625 31.964673 
L 1716.825625 7.505849 
L 42.825625 7.505849 
z
" style="fill: #ffffff"/>
   </g>
   <g id="patch_3">
    <path d="M 393.118008 31.964673 
L 472.331768 31.964673 
L 472.331768 7.505849 
L 393.118008 7.505849 
z
" clip-path="url(#p9da0abbf8c)" style="opacity: 0.3"/>
   </g>
   <g id="patch_4">
    <path d="M 872.970588 31.964673 
L 952.184347 31.964673 
L 952.184347 7.505849 
L 872.970588 7.505849 
z
" clip-path="url(#p9da0abbf8c)" style="opacity: 0.3"/>
   </g>
   <g id="patch_5">
    <path d="M 1299.506215 31.964673 
L 1378.719974 31.964673 
L 1378.719974 7.505849 
L 1299.506215 7.505849 
z
" clip-path="url(#p9da0abbf8c)" style="opacity: 0.3"/>
   </g>
   <g id="matplotlib.axis_1">
    <g id="xtick_1">
     <g id="line2d_1">
      <defs>
       <path id="mbd4cb4d1b7" d="M 0 0 
L 0 3.5 
" style="stroke: #000000; stroke-width: 0.8"/>
      </defs>
      <g>
       <use xlink:href="#mbd4cb4d1b7" x="118.916534" y="31.964673" style="stroke: #000000; stroke-width: 0.8"/>
      </g>
     </g>
    </g>
    <g id="xtick_2">
     <g id="line2d_2">
      <g>
       <use xlink:href="#mbd4cb4d1b7" x="423.584839" y="31.964673" style="stroke: #000000; stroke-width: 0.8"/>
      </g>
     </g>
    </g>
    <g id="xtick_3">
     <g id="line2d_3">
      <g>
       <use xlink:href="#mbd4cb4d1b7" x="728.253143" y="31.964673" style="stroke: #000000; stroke-width: 0.8"/>
      </g>
     </g>
    </g>
    <g id="xtick_4">
     <g id="line2d_4">
      <g>
       <use xlink:href="#mbd4cb4d1b7" x="1032.921448" y="31.964673" style="stroke: #000000; stroke-width: 0.8"/>
      </g>
     </g>
    </g>
    <g id="xtick_5">
     <g id="line2d_5">
      <g>
       <use xlink:href="#mbd4cb4d1b7" x="1337.589753" y="31.964673" style="stroke: #000000; stroke-width: 0.8"/>
      </g>
     </g>
    </g>
    <g id="xtick_6">
     <g id="line2d_6">
      <g>
       <use xlink:href="#mbd4cb4d1b7" x="1642.258057" y="31.964673" style="stroke: #000000; stroke-width: 0.8"/>
      </g>
     </g>
    </g>
   </g>
   <g id="matplotlib.axis_2">
    <g id="ytick_1">
     <g id="line2d_7">
      <defs>
       <path id="m8eb03b3fd1" d="M 0 0 
L -3.5 0 
" style="stroke: #000000; stroke-width: 0.8"/>
      </defs>
      <g>
       <use xlink:href="#m8eb03b3fd1" x="42.825625" y="31.964673" style="stroke: #000000; stroke-width: 0.8"/>
      </g>
     </g>
     <g id="text_1">
      <!-- 0.0 -->
      <g transform="translate(7.2 38.803266) scale(0.18 -0.18)">
       <defs>
        <path id="DejaVuSans-30" d="M 2034 4250 
Q 1547 4250 1301 3770 
Q 1056 3291 1056 2328 
Q 1056 1369 1301 889 
Q 1547 409 2034 409 
Q 2525 409 2770 889 
Q 3016 1369 3016 2328 
Q 3016 3291 2770 3770 
Q 2525 4250 2034 4250 
z
M 2034 4750 
Q 2819 4750 3233 4129 
Q 3647 3509 3647 2328 
Q 3647 1150 3233 529 
Q 2819 -91 2034 -91 
Q 1250 -91 836 529 
Q 422 1150 422 2328 
Q 422 3509 836 4129 
Q 1250 4750 2034 4750 
z
" transform="scale(0.015625)"/>
        <path id="DejaVuSans-2e" d="M 684 794 
L 1344 794 
L 1344 0 
L 684 0 
L 684 794 
z
" transform="scale(0.015625)"/>
       </defs>
       <use xlink:href="#DejaVuSans-30"/>
       <use xlink:href="#DejaVuSans-2e" x="63.623047"/>
       <use xlink:href="#DejaVuSans-30" x="95.410156"/>
      </g>
     </g>
    </g>
    <g id="ytick_2">
     <g id="line2d_8">
      <g>
       <use xlink:href="#m8eb03b3fd1" x="42.825625" y="14.038594" style="stroke: #000000; stroke-width: 0.8"/>
      </g>
     </g>
     <g id="text_2">
      <!-- 2.5 -->
      <g transform="translate(7.2 20.877187) scale(0.18 -0.18)">
       <defs>
        <path id="DejaVuSans-32" d="M 1228 531 
L 3431 531 
L 3431 0 
L 469 0 
L 469 531 
Q 828 903 1448 1529 
Q 2069 2156 2228 2338 
Q 2531 2678 2651 2914 
Q 2772 3150 2772 3378 
Q 2772 3750 2511 3984 
Q 2250 4219 1831 4219 
Q 1534 4219 1204 4116 
Q 875 4013 500 3803 
L 500 4441 
Q 881 4594 1212 4672 
Q 1544 4750 1819 4750 
Q 2544 4750 2975 4387 
Q 3406 4025 3406 3419 
Q 3406 3131 3298 2873 
Q 3191 2616 2906 2266 
Q 2828 2175 2409 1742 
Q 1991 1309 1228 531 
z
" transform="scale(0.015625)"/>
        <path id="DejaVuSans-35" d="M 691 4666 
L 3169 4666 
L 3169 4134 
L 1269 4134 
L 1269 2991 
Q 1406 3038 1543 3061 
Q 1681 3084 1819 3084 
Q 2600 3084 3056 2656 
Q 3513 2228 3513 1497 
Q 3513 744 3044 326 
Q 2575 -91 1722 -91 
Q 1428 -91 1123 -41 
Q 819 9 494 109 
L 494 744 
Q 775 591 1075 516 
Q 1375 441 1709 441 
Q 2250 441 2565 725 
Q 2881 1009 2881 1497 
Q 2881 1984 2565 2268 
Q 2250 2553 1709 2553 
Q 1456 2553 1204 2497 
Q 953 2441 691 2322 
L 691 4666 
z
" transform="scale(0.015625)"/>
       </defs>
       <use xlink:href="#DejaVuSans-32"/>
       <use xlink:href="#DejaVuSans-2e" x="63.623047"/>
       <use xlink:href="#DejaVuSans-35" x="95.410156"/>
      </g>
     </g>
    </g>
   </g>
   <g id="line2d_9">
    <path d="M 118.916534 31.964673 
L 415.968131 31.964673 
L 417.491473 22.94926 
L 419.014814 21.177371 
L 420.538156 14.523779 
L 422.061497 8.811298 
L 423.584839 7.505849 
L 426.631522 13.028617 
L 429.678205 18.441986 
L 431.201546 21.446681 
L 432.724888 22.442463 
L 434.248229 23.808803 
L 435.771571 25.487896 
L 437.294912 23.838919 
L 438.818254 31.964673 
L 895.820711 31.964673 
L 897.344053 30.216116 
L 898.867394 25.732149 
L 900.390736 25.346133 
L 901.914077 23.101113 
L 903.437419 20.104671 
L 904.96076 17.864556 
L 906.484102 14.228148 
L 908.007443 7.562216 
L 909.530785 11.033072 
L 912.577468 25.285261 
L 914.100809 26.658451 
L 915.624151 30.125725 
L 917.147492 30.824883 
L 918.670834 31.964673 
L 1322.356338 31.964673 
L 1323.879679 28.537508 
L 1325.403021 27.204937 
L 1326.926362 19.474645 
L 1328.449704 17.699609 
L 1329.973045 21.637954 
L 1331.496387 23.497095 
L 1333.019728 24.383415 
L 1334.54307 24.934946 
L 1337.589753 25.263281 
L 1339.113094 23.851957 
L 1340.636436 22.179761 
L 1343.683119 21.833293 
L 1345.20646 31.964673 
L 1640.734716 31.964673 
L 1640.734716 31.964673 
" clip-path="url(#p9da0abbf8c)" style="fill: none; stroke: #a52a2a; stroke-width: 0.8; stroke-linecap: square"/>
   </g>
   <g id="patch_6">
    <path d="M 42.825625 31.964673 
L 42.825625 7.505849 
" style="fill: none; stroke: #000000; stroke-width: 0.8; stroke-linejoin: miter; stroke-linecap: square"/>
   </g>
   <g id="patch_7">
    <path d="M 1716.825625 31.964673 
L 1716.825625 7.505849 
" style="fill: none; stroke: #000000; stroke-width: 0.8; stroke-linejoin: miter; stroke-linecap: square"/>
   </g>
   <g id="patch_8">
    <path d="M 42.825625 31.964673 
L 1716.825625 31.964673 
" style="fill: none; stroke: #000000; stroke-width: 0.8; stroke-linejoin: miter; stroke-linecap: square"/>
   </g>
   <g id="patch_9">
    <path d="M 42.825625 7.505849 
L 1716.825625 7.505849 
" style="fill: none; stroke: #000000; stroke-width: 0.8; stroke-linejoin: miter; stroke-linecap: square"/>
   </g>
   <g id="legend_1">
    <g id="patch_10">
     <path d="M 1617.792094 40.004544 
L 1711.751625 40.004544 
Q 1715.151625 40.004544 1715.151625 36.604544 
L 1715.151625 13.351732 
Q 1715.151625 9.951732 1711.751625 9.951732 
L 1617.792094 9.951732 
Q 1614.392094 9.951732 1614.392094 13.351732 
L 1614.392094 36.604544 
Q 1614.392094 40.004544 1617.792094 40.004544 
z
" style="fill: #ffffff; opacity: 0.8; stroke: #cccccc; stroke-linejoin: miter"/>
    </g>
    <g id="line2d_10">
     <path d="M 1621.192094 23.719075 
L 1638.192094 23.719075 
L 1655.192094 23.719075 
" style="fill: none; stroke: #a52a2a; stroke-width: 0.8; stroke-linecap: square"/>
    </g>
    <g id="text_3">
     <!-- 1 DP -->
     <g transform="translate(1668.792094 29.669075) scale(0.17 -0.17)">
      <defs>
       <path id="DejaVuSans-31" d="M 794 531 
L 1825 531 
L 1825 4091 
L 703 3866 
L 703 4441 
L 1819 4666 
L 2450 4666 
L 2450 531 
L 3481 531 
L 3481 0 
L 794 0 
L 794 531 
z
" transform="scale(0.015625)"/>
       <path id="DejaVuSans-20" transform="scale(0.015625)"/>
       <path id="DejaVuSans-44" d="M 1259 4147 
L 1259 519 
L 2022 519 
Q 2988 519 3436 956 
Q 3884 1394 3884 2338 
Q 3884 3275 3436 3711 
Q 2988 4147 2022 4147 
L 1259 4147 
z
M 628 4666 
L 1925 4666 
Q 3281 4666 3915 4102 
Q 4550 3538 4550 2338 
Q 4550 1131 3912 565 
Q 3275 0 1925 0 
L 628 0 
L 628 4666 
z
" transform="scale(0.015625)"/>
       <path id="DejaVuSans-50" d="M 1259 4147 
L 1259 2394 
L 2053 2394 
Q 2494 2394 2734 2622 
Q 2975 2850 2975 3272 
Q 2975 3691 2734 3919 
Q 2494 4147 2053 4147 
L 1259 4147 
z
M 628 4666 
L 2053 4666 
Q 2838 4666 3239 4311 
Q 3641 3956 3641 3272 
Q 3641 2581 3239 2228 
Q 2838 1875 2053 1875 
L 1259 1875 
L 1259 0 
L 628 0 
L 628 4666 
z
" transform="scale(0.015625)"/>
      </defs>
      <use xlink:href="#DejaVuSans-31"/>
      <use xlink:href="#DejaVuSans-20" x="63.623047"/>
      <use xlink:href="#DejaVuSans-44" x="95.410156"/>
      <use xlink:href="#DejaVuSans-50" x="172.412109"/>
     </g>
    </g>
   </g>
  </g>
  <g id="axes_2">
   <g id="patch_11">
    <path d="M 42.825625 61.315261 
L 1716.825625 61.315261 
L 1716.825625 36.856437 
L 42.825625 36.856437 
z
" style="fill: #ffffff"/>
   </g>
   <g id="patch_12">
    <path d="M 393.118008 61.315261 
L 472.331768 61.315261 
L 472.331768 36.856437 
L 393.118008 36.856437 
z
" clip-path="url(#pc952a2f7f3)" style="fill: #0000ff; opacity: 0.3"/>
   </g>
   <g id="patch_13">
    <path d="M 872.970588 61.315261 
L 952.184347 61.315261 
L 952.184347 36.856437 
L 872.970588 36.856437 
z
" clip-path="url(#pc952a2f7f3)" style="fill: #0000ff; opacity: 0.3"/>
   </g>
   <g id="matplotlib.axis_3">
    <g id="xtick_7">
     <g id="line2d_11">
      <g>
       <use xlink:href="#mbd4cb4d1b7" x="118.916534" y="61.315261" style="stroke: #000000; stroke-width: 0.8"/>
      </g>
     </g>
    </g>
    <g id="xtick_8">
     <g id="line2d_12">
      <g>
       <use xlink:href="#mbd4cb4d1b7" x="423.584839" y="61.315261" style="stroke: #000000; stroke-width: 0.8"/>
      </g>
     </g>
    </g>
    <g id="xtick_9">
     <g id="line2d_13">
      <g>
       <use xlink:href="#mbd4cb4d1b7" x="728.253143" y="61.315261" style="stroke: #000000; stroke-width: 0.8"/>
      </g>
     </g>
    </g>
    <g id="xtick_10">
     <g id="line2d_14">
      <g>
       <use xlink:href="#mbd4cb4d1b7" x="1032.921448" y="61.315261" style="stroke: #000000; stroke-width: 0.8"/>
      </g>
     </g>
    </g>
    <g id="xtick_11">
     <g id="line2d_15">
      <g>
       <use xlink:href="#mbd4cb4d1b7" x="1337.589753" y="61.315261" style="stroke: #000000; stroke-width: 0.8"/>
      </g>
     </g>
    </g>
    <g id="xtick_12">
     <g id="line2d_16">
      <g>
       <use xlink:href="#mbd4cb4d1b7" x="1642.258057" y="61.315261" style="stroke: #000000; stroke-width: 0.8"/>
      </g>
     </g>
    </g>
   </g>
   <g id="matplotlib.axis_4">
    <g id="ytick_3">
     <g id="line2d_17">
      <g>
       <use xlink:href="#m8eb03b3fd1" x="42.825625" y="61.315261" style="stroke: #000000; stroke-width: 0.8"/>
      </g>
     </g>
     <g id="text_4">
      <!-- 0.0 -->
      <g transform="translate(7.2 68.153855) scale(0.18 -0.18)">
       <use xlink:href="#DejaVuSans-30"/>
       <use xlink:href="#DejaVuSans-2e" x="63.623047"/>
       <use xlink:href="#DejaVuSans-30" x="95.410156"/>
      </g>
     </g>
    </g>
    <g id="ytick_4">
     <g id="line2d_18">
      <g>
       <use xlink:href="#m8eb03b3fd1" x="42.825625" y="43.389182" style="stroke: #000000; stroke-width: 0.8"/>
      </g>
     </g>
     <g id="text_5">
      <!-- 2.5 -->
      <g transform="translate(7.2 50.227776) scale(0.18 -0.18)">
       <use xlink:href="#DejaVuSans-32"/>
       <use xlink:href="#DejaVuSans-2e" x="63.623047"/>
       <use xlink:href="#DejaVuSans-35" x="95.410156"/>
      </g>
     </g>
    </g>
   </g>
   <g id="line2d_19">
    <path d="M 118.916534 61.315261 
L 415.968131 61.315261 
L 417.491473 58.584109 
L 419.014814 56.321702 
L 420.538156 54.409429 
L 422.061497 51.926386 
L 423.584839 53.763447 
L 425.10818 54.919606 
L 426.631522 55.905875 
L 428.154863 56.4987 
L 429.678205 56.756241 
L 431.201546 56.722168 
L 432.724888 57.18402 
L 434.248229 57.312919 
L 435.771571 57.977283 
L 437.294912 59.398035 
L 438.818254 61.315261 
L 895.820711 61.315261 
L 898.867394 58.297744 
L 901.914077 55.271531 
L 903.437419 54.277629 
L 904.96076 52.533166 
L 906.484102 49.745368 
L 908.007443 47.73112 
L 909.530785 49.745368 
L 911.054126 52.533166 
L 912.577468 56.626841 
L 914.100809 57.250327 
L 915.624151 59.668463 
L 917.147492 60.265849 
L 918.670834 61.315261 
L 1640.734716 61.315261 
L 1640.734716 61.315261 
" clip-path="url(#pc952a2f7f3)" style="fill: none; stroke: #a52a2a; stroke-width: 0.8; stroke-linecap: square"/>
   </g>
   <g id="patch_14">
    <path d="M 42.825625 61.315261 
L 42.825625 36.856437 
" style="fill: none; stroke: #000000; stroke-width: 0.8; stroke-linejoin: miter; stroke-linecap: square"/>
   </g>
   <g id="patch_15">
    <path d="M 1716.825625 61.315261 
L 1716.825625 36.856437 
" style="fill: none; stroke: #000000; stroke-width: 0.8; stroke-linejoin: miter; stroke-linecap: square"/>
   </g>
   <g id="patch_16">
    <path d="M 42.825625 61.315261 
L 1716.825625 61.315261 
" style="fill: none; stroke: #000000; stroke-width: 0.8; stroke-linejoin: miter; stroke-linecap: square"/>
   </g>
   <g id="patch_17">
    <path d="M 42.825625 36.856437 
L 1716.825625 36.856437 
" style="fill: none; stroke: #000000; stroke-width: 0.8; stroke-linejoin: miter; stroke-linecap: square"/>
   </g>
   <g id="legend_2">
    <g id="patch_18">
     <path d="M 1617.792094 69.355132 
L 1711.751625 69.355132 
Q 1715.151625 69.355132 1715.151625 65.955132 
L 1715.151625 42.70232 
Q 1715.151625 39.30232 1711.751625 39.30232 
L 1617.792094 39.30232 
Q 1614.392094 39.30232 1614.392094 42.70232 
L 1614.392094 65.955132 
Q 1614.392094 69.355132 1617.792094 69.355132 
z
" style="fill: #ffffff; opacity: 0.8; stroke: #cccccc; stroke-linejoin: miter"/>
    </g>
    <g id="line2d_20">
     <path d="M 1621.192094 53.069664 
L 1638.192094 53.069664 
L 1655.192094 53.069664 
" style="fill: none; stroke: #a52a2a; stroke-width: 0.8; stroke-linecap: square"/>
    </g>
    <g id="text_6">
     <!-- 2 DP -->
     <g transform="translate(1668.792094 59.019664) scale(0.17 -0.17)">
      <use xlink:href="#DejaVuSans-32"/>
      <use xlink:href="#DejaVuSans-20" x="63.623047"/>
      <use xlink:href="#DejaVuSans-44" x="95.410156"/>
      <use xlink:href="#DejaVuSans-50" x="172.412109"/>
     </g>
    </g>
   </g>
  </g>
  <g id="axes_3">
   <g id="patch_19">
    <path d="M 42.825625 90.665849 
L 1716.825625 90.665849 
L 1716.825625 66.207026 
L 42.825625 66.207026 
z
" style="fill: #ffffff"/>
   </g>
   <g id="patch_20">
    <path d="M 872.970588 90.665849 
L 952.184347 90.665849 
L 952.184347 66.207026 
L 872.970588 66.207026 
z
" clip-path="url(#pa79837f2d9)" style="fill: #ff0000; opacity: 0.3"/>
   </g>
   <g id="matplotlib.axis_5">
    <g id="xtick_13">
     <g id="line2d_21">
      <g>
       <use xlink:href="#mbd4cb4d1b7" x="118.916534" y="90.665849" style="stroke: #000000; stroke-width: 0.8"/>
      </g>
     </g>
     <g id="text_7">
      <!-- 0 -->
      <g transform="translate(112.872159 112.10288) scale(0.19 -0.19)">
       <use xlink:href="#DejaVuSans-30"/>
      </g>
     </g>
    </g>
    <g id="xtick_14">
     <g id="line2d_22">
      <g>
       <use xlink:href="#mbd4cb4d1b7" x="423.584839" y="90.665849" style="stroke: #000000; stroke-width: 0.8"/>
      </g>
     </g>
     <g id="text_8">
      <!-- 200 -->
      <g transform="translate(405.451714 112.10288) scale(0.19 -0.19)">
       <use xlink:href="#DejaVuSans-32"/>
       <use xlink:href="#DejaVuSans-30" x="63.623047"/>
       <use xlink:href="#DejaVuSans-30" x="127.246094"/>
      </g>
     </g>
    </g>
    <g id="xtick_15">
     <g id="line2d_23">
      <g>
       <use xlink:href="#mbd4cb4d1b7" x="728.253143" y="90.665849" style="stroke: #000000; stroke-width: 0.8"/>
      </g>
     </g>
     <g id="text_9">
      <!-- 400 -->
      <g transform="translate(710.120018 112.10288) scale(0.19 -0.19)">
       <defs>
        <path id="DejaVuSans-34" d="M 2419 4116 
L 825 1625 
L 2419 1625 
L 2419 4116 
z
M 2253 4666 
L 3047 4666 
L 3047 1625 
L 3713 1625 
L 3713 1100 
L 3047 1100 
L 3047 0 
L 2419 0 
L 2419 1100 
L 313 1100 
L 313 1709 
L 2253 4666 
z
" transform="scale(0.015625)"/>
       </defs>
       <use xlink:href="#DejaVuSans-34"/>
       <use xlink:href="#DejaVuSans-30" x="63.623047"/>
       <use xlink:href="#DejaVuSans-30" x="127.246094"/>
      </g>
     </g>
    </g>
    <g id="xtick_16">
     <g id="line2d_24">
      <g>
       <use xlink:href="#mbd4cb4d1b7" x="1032.921448" y="90.665849" style="stroke: #000000; stroke-width: 0.8"/>
      </g>
     </g>
     <g id="text_10">
      <!-- 600 -->
      <g transform="translate(1014.788323 112.10288) scale(0.19 -0.19)">
       <defs>
        <path id="DejaVuSans-36" d="M 2113 2584 
Q 1688 2584 1439 2293 
Q 1191 2003 1191 1497 
Q 1191 994 1439 701 
Q 1688 409 2113 409 
Q 2538 409 2786 701 
Q 3034 994 3034 1497 
Q 3034 2003 2786 2293 
Q 2538 2584 2113 2584 
z
M 3366 4563 
L 3366 3988 
Q 3128 4100 2886 4159 
Q 2644 4219 2406 4219 
Q 1781 4219 1451 3797 
Q 1122 3375 1075 2522 
Q 1259 2794 1537 2939 
Q 1816 3084 2150 3084 
Q 2853 3084 3261 2657 
Q 3669 2231 3669 1497 
Q 3669 778 3244 343 
Q 2819 -91 2113 -91 
Q 1303 -91 875 529 
Q 447 1150 447 2328 
Q 447 3434 972 4092 
Q 1497 4750 2381 4750 
Q 2619 4750 2861 4703 
Q 3103 4656 3366 4563 
z
" transform="scale(0.015625)"/>
       </defs>
       <use xlink:href="#DejaVuSans-36"/>
       <use xlink:href="#DejaVuSans-30" x="63.623047"/>
       <use xlink:href="#DejaVuSans-30" x="127.246094"/>
      </g>
     </g>
    </g>
    <g id="xtick_17">
     <g id="line2d_25">
      <g>
       <use xlink:href="#mbd4cb4d1b7" x="1337.589753" y="90.665849" style="stroke: #000000; stroke-width: 0.8"/>
      </g>
     </g>
     <g id="text_11">
      <!-- 800 -->
      <g transform="translate(1319.456628 112.10288) scale(0.19 -0.19)">
       <defs>
        <path id="DejaVuSans-38" d="M 2034 2216 
Q 1584 2216 1326 1975 
Q 1069 1734 1069 1313 
Q 1069 891 1326 650 
Q 1584 409 2034 409 
Q 2484 409 2743 651 
Q 3003 894 3003 1313 
Q 3003 1734 2745 1975 
Q 2488 2216 2034 2216 
z
M 1403 2484 
Q 997 2584 770 2862 
Q 544 3141 544 3541 
Q 544 4100 942 4425 
Q 1341 4750 2034 4750 
Q 2731 4750 3128 4425 
Q 3525 4100 3525 3541 
Q 3525 3141 3298 2862 
Q 3072 2584 2669 2484 
Q 3125 2378 3379 2068 
Q 3634 1759 3634 1313 
Q 3634 634 3220 271 
Q 2806 -91 2034 -91 
Q 1263 -91 848 271 
Q 434 634 434 1313 
Q 434 1759 690 2068 
Q 947 2378 1403 2484 
z
M 1172 3481 
Q 1172 3119 1398 2916 
Q 1625 2713 2034 2713 
Q 2441 2713 2670 2916 
Q 2900 3119 2900 3481 
Q 2900 3844 2670 4047 
Q 2441 4250 2034 4250 
Q 1625 4250 1398 4047 
Q 1172 3844 1172 3481 
z
" transform="scale(0.015625)"/>
       </defs>
       <use xlink:href="#DejaVuSans-38"/>
       <use xlink:href="#DejaVuSans-30" x="63.623047"/>
       <use xlink:href="#DejaVuSans-30" x="127.246094"/>
      </g>
     </g>
    </g>
    <g id="xtick_18">
     <g id="line2d_26">
      <g>
       <use xlink:href="#mbd4cb4d1b7" x="1642.258057" y="90.665849" style="stroke: #000000; stroke-width: 0.8"/>
      </g>
     </g>
     <g id="text_12">
      <!-- 1000 -->
      <g transform="translate(1618.080557 112.10288) scale(0.19 -0.19)">
       <use xlink:href="#DejaVuSans-31"/>
       <use xlink:href="#DejaVuSans-30" x="63.623047"/>
       <use xlink:href="#DejaVuSans-30" x="127.246094"/>
       <use xlink:href="#DejaVuSans-30" x="190.869141"/>
      </g>
     </g>
    </g>
   </g>
   <g id="matplotlib.axis_6">
    <g id="ytick_5">
     <g id="line2d_27">
      <g>
       <use xlink:href="#m8eb03b3fd1" x="42.825625" y="89.554084" style="stroke: #000000; stroke-width: 0.8"/>
      </g>
     </g>
     <g id="text_13">
      <!-- 0 -->
      <g transform="translate(24.373125 96.392678) scale(0.18 -0.18)">
       <use xlink:href="#DejaVuSans-30"/>
      </g>
     </g>
    </g>
    <g id="ytick_6">
     <g id="line2d_28">
      <g>
       <use xlink:href="#m8eb03b3fd1" x="42.825625" y="70.296403" style="stroke: #000000; stroke-width: 0.8"/>
      </g>
     </g>
     <g id="text_14">
      <!-- 1 -->
      <g transform="translate(24.373125 77.134997) scale(0.18 -0.18)">
       <use xlink:href="#DejaVuSans-31"/>
      </g>
     </g>
    </g>
   </g>
   <g id="line2d_29">
    <path d="M 118.916534 89.554084 
L 895.820711 89.554084 
L 897.344053 86.487639 
L 898.867394 84.96323 
L 900.390736 81.499633 
L 903.437419 77.99472 
L 904.96076 75.131419 
L 906.484102 70.577414 
L 908.007443 67.31879 
L 909.530785 70.577414 
L 911.054126 75.131419 
L 912.577468 80.683575 
L 914.100809 84.608617 
L 915.624151 85.436303 
L 918.670834 89.554084 
L 1640.734716 89.554084 
L 1640.734716 89.554084 
" clip-path="url(#pa79837f2d9)" style="fill: none; stroke: #a52a2a; stroke-width: 0.8; stroke-linecap: square"/>
   </g>
   <g id="patch_21">
    <path d="M 42.825625 90.665849 
L 42.825625 66.207026 
" style="fill: none; stroke: #000000; stroke-width: 0.8; stroke-linejoin: miter; stroke-linecap: square"/>
   </g>
   <g id="patch_22">
    <path d="M 1716.825625 90.665849 
L 1716.825625 66.207026 
" style="fill: none; stroke: #000000; stroke-width: 0.8; stroke-linejoin: miter; stroke-linecap: square"/>
   </g>
   <g id="patch_23">
    <path d="M 42.825625 90.665849 
L 1716.825625 90.665849 
" style="fill: none; stroke: #000000; stroke-width: 0.8; stroke-linejoin: miter; stroke-linecap: square"/>
   </g>
   <g id="patch_24">
    <path d="M 42.825625 66.207026 
L 1716.825625 66.207026 
" style="fill: none; stroke: #000000; stroke-width: 0.8; stroke-linejoin: miter; stroke-linecap: square"/>
   </g>
   <g id="legend_3">
    <g id="patch_25">
     <path d="M 1617.792094 98.705721 
L 1711.751625 98.705721 
Q 1715.151625 98.705721 1715.151625 95.305721 
L 1715.151625 72.052908 
Q 1715.151625 68.652908 1711.751625 68.652908 
L 1617.792094 68.652908 
Q 1614.392094 68.652908 1614.392094 72.052908 
L 1614.392094 95.305721 
Q 1614.392094 98.705721 1617.792094 98.705721 
z
" style="fill: #ffffff; opacity: 0.8; stroke: #cccccc; stroke-linejoin: miter"/>
    </g>
    <g id="line2d_30">
     <path d="M 1621.192094 82.420252 
L 1638.192094 82.420252 
L 1655.192094 82.420252 
" style="fill: none; stroke: #a52a2a; stroke-width: 0.8; stroke-linecap: square"/>
    </g>
    <g id="text_15">
     <!-- 3 DP -->
     <g transform="translate(1668.792094 88.370252) scale(0.17 -0.17)">
      <defs>
       <path id="DejaVuSans-33" d="M 2597 2516 
Q 3050 2419 3304 2112 
Q 3559 1806 3559 1356 
Q 3559 666 3084 287 
Q 2609 -91 1734 -91 
Q 1441 -91 1130 -33 
Q 819 25 488 141 
L 488 750 
Q 750 597 1062 519 
Q 1375 441 1716 441 
Q 2309 441 2620 675 
Q 2931 909 2931 1356 
Q 2931 1769 2642 2001 
Q 2353 2234 1838 2234 
L 1294 2234 
L 1294 2753 
L 1863 2753 
Q 2328 2753 2575 2939 
Q 2822 3125 2822 3475 
Q 2822 3834 2567 4026 
Q 2313 4219 1838 4219 
Q 1578 4219 1281 4162 
Q 984 4106 628 3988 
L 628 4550 
Q 988 4650 1302 4700 
Q 1616 4750 1894 4750 
Q 2613 4750 3031 4423 
Q 3450 4097 3450 3541 
Q 3450 3153 3228 2886 
Q 3006 2619 2597 2516 
z
" transform="scale(0.015625)"/>
      </defs>
      <use xlink:href="#DejaVuSans-33"/>
      <use xlink:href="#DejaVuSans-20" x="63.623047"/>
      <use xlink:href="#DejaVuSans-44" x="95.410156"/>
      <use xlink:href="#DejaVuSans-50" x="172.412109"/>
     </g>
    </g>
   </g>
  </g>
 </g>
 <defs>
  <clipPath id="p9da0abbf8c">
   <rect x="42.825625" y="7.505849" width="1674" height="24.458824"/>
  </clipPath>
  <clipPath id="pc952a2f7f3">
   <rect x="42.825625" y="36.856437" width="1674" height="24.458824"/>
  </clipPath>
  <clipPath id="pa79837f2d9">
   <rect x="42.825625" y="66.207026" width="1674" height="24.458824"/>
  </clipPath>
 </defs>
</svg>
